{"glyphs":{"0":{"ha":710,"x_min":71,"x_max":639,"o":"m 71 338 l 71 827 q 82 942 71 890 q 109 1028 92 994 q 151 1089 126 1063 q 200 1131 175 1116 q 254 1154 224 1145 q 307 1166 283 1163 q 357 1168 331 1168 q 639 827 639 1168 l 639 338 q 628 223 639 275 q 601 136 618 171 q 559 73 583 100 q 510 31 534 46 q 456 6 485 16 q 404 -7 427 -4 q 357 -10 380 -10 q 306 -7 330 -10 q 252 6 281 -4 q 198 31 223 16 q 149 73 173 46 q 108 136 125 100 q 81 223 92 171 q 71 338 71 275 m 251 264 q 277 160 251 193 q 357 127 303 127 q 435 160 409 127 q 460 264 460 193 l 460 891 q 435 1001 460 966 q 357 1036 409 1036 q 277 1001 303 1036 q 251 891 251 966 l 251 264 z "},"1":{"ha":563,"x_min":18,"x_max":545,"o":"m 103 0 l 103 132 l 237 132 l 237 922 l 94 795 l 18 884 l 281 1158 l 412 1158 l 411 1157 l 412 1158 l 412 132 l 545 132 l 545 0 l 103 0 z "},"2":{"ha":673,"x_min":69,"x_max":624,"o":"m 69 0 l 69 103 l 325 595 q 415 794 391 722 q 439 916 439 866 q 415 1013 439 985 q 339 1041 391 1041 q 226 850 226 1041 l 226 785 l 90 785 q 72 923 72 882 q 88 1011 72 968 q 135 1089 104 1054 q 218 1147 165 1125 q 339 1168 271 1168 q 624 906 624 1168 q 597 765 624 837 q 499 572 570 694 l 271 138 l 609 138 l 609 0 l 69 0 z "},"3":{"ha":702,"x_min":65,"x_max":629,"o":"m 68 236 q 85 372 68 300 l 222 372 l 222 313 q 340 122 222 122 q 450 256 450 122 l 450 385 q 421 499 450 461 q 328 537 393 537 l 254 537 l 254 663 l 328 663 q 404 695 375 663 q 433 795 433 727 l 433 916 q 333 1041 433 1041 q 249 991 279 1041 q 219 850 219 942 l 219 785 l 83 785 q 65 923 65 871 q 82 1011 65 968 q 130 1089 98 1054 q 215 1147 162 1125 q 333 1168 267 1168 q 545 1103 477 1168 q 612 912 612 1038 l 612 841 q 571 693 612 751 q 469 606 530 635 l 469 600 q 586 517 544 575 q 629 353 629 460 l 629 277 q 606 142 629 199 q 543 53 583 85 q 452 5 502 20 q 340 -10 401 -10 q 138 54 208 -10 q 68 236 68 118 z "},"4":{"ha":746,"x_min":55,"x_max":709,"o":"m 55 208 l 55 300 l 393 1158 l 602 1158 l 602 345 l 709 345 l 709 208 l 602 208 l 602 0 l 439 0 l 439 208 l 55 208 m 234 345 l 439 345 l 439 516 l 455 953 l 435 953 l 234 345 z "},"5":{"ha":699,"x_min":85,"x_max":625,"o":"m 85 238 q 102 372 85 300 l 239 372 l 239 277 q 264 159 239 195 q 342 122 288 122 q 420 161 396 122 q 444 277 444 200 l 444 501 q 419 610 444 581 q 349 640 395 640 q 239 567 281 640 l 109 567 l 109 1158 l 607 1158 l 607 1003 l 256 1003 l 256 717 q 327 767 284 749 q 417 786 370 786 q 574 714 524 786 q 625 500 625 643 l 625 303 q 610 179 625 234 q 569 90 595 125 q 508 32 544 55 q 434 -1 473 9 q 351 -10 395 -10 q 154 56 223 -10 q 85 238 85 122 z "},"6":{"ha":712,"x_min":73,"x_max":642,"o":"m 73 344 l 73 820 q 84 940 73 886 q 113 1029 96 994 q 157 1092 131 1065 q 208 1133 183 1118 q 265 1155 233 1147 q 320 1166 296 1164 q 371 1168 344 1168 q 490 1151 439 1168 q 572 1102 542 1133 q 616 1032 602 1071 q 631 948 631 994 q 613 839 631 895 l 479 839 l 479 874 q 468 981 479 943 q 433 1033 456 1019 q 371 1046 411 1046 q 251 880 251 1046 l 251 656 q 415 724 313 724 q 479 716 449 724 q 540 689 509 709 q 593 637 571 669 q 628 555 614 606 q 642 437 642 504 l 642 325 q 571 68 642 147 q 368 -10 500 -10 q 147 73 220 -10 q 73 344 73 156 m 251 278 q 279 160 251 198 q 366 122 307 122 q 467 271 467 122 l 467 444 q 440 558 467 524 q 363 592 413 592 q 251 529 298 592 l 251 278 z "},"7":{"ha":575,"x_min":28,"x_max":557,"o":"m 47 0 l 368 1004 l 28 1004 l 28 1159 l 557 1159 l 557 1066 l 238 0 l 47 0 z "},"8":{"ha":707,"x_min":59,"x_max":650,"o":"m 59 281 l 59 352 q 203 600 59 528 l 203 605 q 75 827 75 672 l 75 908 q 95 1022 75 973 q 143 1098 115 1071 q 212 1142 172 1125 q 285 1163 252 1158 q 354 1168 318 1168 q 424 1163 391 1168 q 497 1142 457 1158 q 566 1098 537 1125 q 614 1023 594 1072 q 633 909 633 974 l 633 827 q 506 606 633 673 l 506 600 q 650 353 650 530 l 650 281 q 632 160 650 212 q 586 76 614 107 q 518 24 558 44 q 438 -3 478 4 q 353 -10 399 -10 q 269 -3 308 -10 q 190 24 229 4 q 122 75 150 43 q 77 159 94 106 q 59 281 59 212 m 346 662 l 362 662 q 457 799 457 662 l 457 895 q 354 1041 457 1041 q 277 1004 301 1041 q 252 893 252 967 l 252 798 q 276 693 252 725 q 346 662 300 662 m 237 267 q 353 122 237 122 q 471 267 471 122 l 471 395 q 362 536 471 536 l 345 536 q 266 501 294 536 q 237 394 237 466 l 237 267 z "},"9":{"ha":705,"x_min":58,"x_max":627,"o":"m 627 821 l 627 338 q 616 218 627 272 q 588 129 605 165 q 545 66 570 93 q 495 26 519 40 q 439 3 470 12 q 385 -8 408 -5 q 336 -10 362 -10 q 213 7 266 -10 q 130 56 161 25 q 84 126 99 87 q 68 210 68 165 q 87 319 68 263 l 220 319 l 220 294 q 233 187 220 225 q 270 136 246 149 q 336 122 294 122 q 449 289 449 122 l 449 502 q 287 435 387 435 q 222 442 253 435 q 161 470 192 450 q 108 521 130 490 q 72 603 85 552 q 58 721 58 654 l 58 833 q 129 1090 58 1011 q 332 1168 200 1168 q 458 1151 406 1168 q 550 1092 511 1133 q 608 984 589 1052 q 627 821 627 917 m 449 899 q 422 1009 449 977 q 334 1042 395 1042 q 233 892 233 1042 l 233 715 q 260 601 233 635 q 337 566 287 566 q 449 629 402 566 l 449 899 z "},"\u0000":{"ha":0,"x_min":0,"x_max":0,"o":""},"\t":{"ha":0,"x_min":0,"x_max":0,"o":""},"\n":{"ha":0,"x_min":0,"x_max":0,"o":""},"\r":{"ha":0,"x_min":0,"x_max":0,"o":""},"\u0010":{"ha":0,"x_min":0,"x_max":0,"o":""},"\u0011":{"ha":0,"x_min":0,"x_max":0,"o":""},"\u0012":{"ha":0,"x_min":0,"x_max":0,"o":""},"\u0013":{"ha":0,"x_min":0,"x_max":0,"o":""},"\u0014":{"ha":0,"x_min":0,"x_max":0,"o":""},"\u001e":{"ha":0,"x_min":0,"x_max":0,"o":""},"\u001f":{"ha":0,"x_min":0,"x_max":0,"o":""}," ":{"ha":297,"x_min":0,"x_max":0,"o":""},"!":{"ha":468,"x_min":130,"x_max":342,"o":"m 165 376 l 141 1230 l 326 1230 l 305 376 l 165 376 m 130 120 q 235 253 130 253 q 314 219 287 253 q 342 120 342 186 q 313 24 342 58 q 235 -9 285 -9 q 158 24 186 -9 q 130 120 130 58 z "},"\"":{"ha":762,"x_min":140,"x_max":622,"o":"m 157 800 l 140 1272 l 309 1272 l 294 800 l 157 800 m 470 800 l 453 1272 l 622 1272 l 608 800 l 470 800 z "},"#":{"ha":751,"x_min":65,"x_max":686,"o":"m 142 0 l 161 261 l 65 261 l 65 385 l 170 385 l 182 549 l 92 549 l 92 672 l 191 672 l 210 928 l 332 928 l 313 672 l 474 672 l 493 928 l 614 928 l 595 672 l 686 672 l 686 549 l 587 549 l 574 385 l 659 385 l 659 261 l 565 261 l 546 0 l 425 0 l 444 261 l 282 261 l 263 0 l 142 0 m 291 385 l 453 385 l 465 549 l 303 549 l 291 385 z "},"$":{"ha":682,"x_min":66,"x_max":616,"o":"m 66 235 q 83 372 66 298 l 220 372 l 220 316 q 336 123 220 123 q 435 222 435 123 q 354 412 435 309 l 176 642 q 99 770 124 708 q 73 906 73 833 q 130 1079 73 1009 q 288 1164 187 1148 l 288 1318 l 414 1318 l 414 1162 q 507 1129 467 1153 q 568 1071 546 1105 q 600 1000 590 1037 q 610 923 610 964 q 592 785 610 882 l 456 785 l 456 840 q 427 981 456 932 q 343 1031 397 1031 q 269 1004 295 1031 q 243 930 243 977 q 257 862 243 893 q 300 792 272 830 l 500 533 q 588 391 560 456 q 616 250 616 326 q 562 83 616 150 q 414 -3 508 17 l 414 -173 l 288 -173 l 288 -8 q 182 21 227 -2 q 113 78 137 43 q 77 151 88 112 q 66 235 66 189 z "},"%":{"ha":1278,"x_min":106,"x_max":1173,"o":"m 325 533 q 262 539 291 533 q 204 565 234 545 q 153 615 174 584 q 119 701 132 646 q 106 828 106 755 l 106 901 q 120 1025 106 972 q 155 1108 134 1078 q 207 1156 176 1138 q 266 1180 238 1175 q 326 1185 293 1185 q 374 1181 351 1185 q 423 1167 397 1177 q 469 1137 449 1157 q 506 1086 489 1116 q 533 1008 524 1056 q 542 901 542 961 l 542 828 q 528 702 542 757 q 492 616 513 648 q 440 566 471 585 q 383 539 410 546 q 325 533 355 533 m 424 0 l 736 1171 l 859 1171 l 547 0 l 424 0 m 326 641 q 385 677 368 641 q 403 793 403 713 l 403 924 q 385 1041 403 1004 q 326 1078 368 1078 q 264 1041 283 1078 q 245 924 245 1004 l 245 793 q 264 677 245 713 q 326 641 283 641 m 737 285 l 737 357 q 751 482 737 429 q 786 565 765 535 q 838 613 808 595 q 896 637 869 631 q 956 642 924 642 q 1005 638 982 642 q 1054 624 1027 634 q 1100 593 1080 614 q 1137 543 1120 573 q 1163 465 1154 513 q 1173 357 1173 418 l 1173 285 q 1158 159 1173 214 q 1123 73 1144 104 q 1071 22 1101 42 q 1014 -4 1041 3 q 956 -10 986 -10 q 893 -4 922 -10 q 835 21 865 2 q 784 72 805 41 q 750 158 764 103 q 737 285 737 212 m 876 250 q 895 134 876 170 q 957 98 913 98 q 1016 134 998 98 q 1034 250 1034 170 l 1034 381 q 1016 498 1034 461 q 957 534 998 534 q 895 498 913 534 q 876 381 876 461 l 876 250 z "},"&":{"ha":821,"x_min":37,"x_max":766,"o":"m 37 278 q 41 323 37 300 q 50 366 45 347 q 64 407 54 385 q 81 445 74 429 q 103 481 88 460 q 125 513 117 503 q 149 545 132 524 q 171 572 165 565 q 193 597 176 578 q 212 619 210 616 l 231 639 l 208 680 q 117 971 117 842 q 191 1157 117 1086 q 374 1227 265 1227 q 469 1214 427 1227 q 536 1178 511 1200 q 577 1128 561 1156 q 601 1073 594 1099 q 607 1019 607 1046 q 601 950 607 984 q 580 886 594 917 q 554 830 566 854 q 519 778 541 806 q 486 735 498 750 q 452 695 474 720 q 425 665 429 670 l 410 648 l 585 330 q 609 491 609 407 q 606 570 609 538 l 748 570 q 755 491 755 531 q 661 192 755 333 l 766 1 l 585 1 l 547 68 q 333 -11 444 -11 q 119 66 200 -11 q 37 278 37 142 m 347 763 l 358 775 q 383 804 376 796 q 408 838 390 812 q 435 882 427 863 q 451 930 443 901 q 459 989 459 960 q 434 1063 459 1038 q 374 1089 410 1089 q 307 1061 336 1089 q 278 971 278 1033 q 293 881 278 926 q 347 763 309 835 m 212 302 q 228 216 212 256 q 281 150 243 177 q 370 122 318 122 q 488 174 435 122 l 296 521 q 212 302 212 416 z "},"'":{"ha":448,"x_min":140,"x_max":309,"o":"m 157 800 l 140 1272 l 309 1272 l 294 800 l 157 800 z "},"(":{"ha":526,"x_min":89,"x_max":444,"o":"m 444 -56 l 444 -174 q 397 -173 417 -174 q 347 -163 376 -171 q 294 -143 317 -156 q 242 -105 271 -130 q 194 -45 214 -80 q 152 42 173 -11 q 118 160 132 94 q 97 317 105 227 q 89 515 89 408 l 89 649 q 97 844 89 755 q 118 998 105 933 q 152 1116 132 1063 q 194 1202 173 1168 q 242 1261 214 1236 q 293 1300 270 1286 q 347 1320 317 1313 q 397 1330 376 1328 q 444 1331 417 1331 l 444 1214 q 295 1079 346 1214 q 245 680 245 943 l 245 483 q 296 77 245 210 q 444 -56 348 -56 z "},")":{"ha":526,"x_min":82,"x_max":437,"o":"m 82 -56 q 230 77 178 -56 q 281 483 281 210 l 281 680 q 231 1079 281 943 q 82 1214 180 1214 l 82 1331 q 129 1330 109 1331 q 179 1320 149 1328 q 232 1300 209 1313 q 283 1261 256 1286 q 332 1202 311 1236 q 374 1116 353 1168 q 407 998 394 1063 q 429 844 420 933 q 437 649 437 755 l 437 515 q 429 317 437 408 q 407 160 420 227 q 373 42 394 94 q 332 -45 353 -11 q 283 -105 311 -80 q 233 -143 256 -130 q 179 -163 210 -156 q 129 -173 149 -171 q 82 -174 109 -174 l 82 -56 z "},"*":{"ha":711,"x_min":54,"x_max":657,"o":"m 248 572 l 113 673 l 274 840 l 54 882 l 102 1044 l 304 934 l 273 1171 l 440 1171 l 404 934 l 608 1040 l 657 878 l 433 840 l 592 669 l 456 570 l 353 782 l 248 572 z "},"+":{"ha":566,"x_min":31,"x_max":536,"o":"m 215 250 l 215 469 l 31 469 l 31 602 l 215 602 l 215 814 l 350 814 l 350 602 l 536 602 l 536 469 l 350 469 l 350 250 l 215 250 z "},",":{"ha":347,"x_min":37,"x_max":279,"o":"m 37 -222 l 105 237 l 279 237 l 180 -222 l 37 -222 z "},"-":{"ha":676,"x_min":85,"x_max":591,"o":"m 85 465 l 85 602 l 591 602 l 591 465 l 85 465 z "},".":{"ha":340,"x_min":62,"x_max":274,"o":"m 62 121 q 168 256 62 256 q 246 222 218 256 q 274 121 274 188 q 245 25 274 60 q 167 -9 217 -9 q 90 24 118 -9 q 62 121 62 58 z "},"/":{"ha":374,"x_min":7,"x_max":368,"o":"m 7 -221 l 219 1278 l 368 1278 l 155 -221 l 7 -221 z "},":":{"ha":340,"x_min":62,"x_max":274,"o":"m 62 781 q 168 915 62 915 q 246 881 218 915 q 274 781 274 847 q 245 684 274 719 q 167 650 217 650 q 90 684 118 650 q 62 781 62 718 m 62 121 q 168 256 62 256 q 246 222 218 256 q 274 121 274 188 q 245 25 274 60 q 167 -9 217 -9 q 90 24 118 -9 q 62 121 62 58 z "},";":{"ha":340,"x_min":37,"x_max":279,"o":"m 62 781 q 168 915 62 915 q 246 881 218 915 q 274 781 274 847 q 245 684 274 719 q 167 650 217 650 q 90 684 118 650 q 62 781 62 718 m 37 -222 l 105 237 l 279 237 l 180 -222 l 37 -222 z "},"<":{"ha":526,"x_min":31,"x_max":467,"o":"m 31 485 l 31 585 l 467 856 l 467 696 l 185 537 l 185 532 l 467 372 l 467 213 l 31 485 z "},"=":{"ha":621,"x_min":58,"x_max":563,"o":"m 58 607 l 58 739 l 563 739 l 563 607 l 58 607 m 58 331 l 58 463 l 563 463 l 563 331 l 58 331 z "},">":{"ha":526,"x_min":24,"x_max":460,"o":"m 460 585 l 460 485 l 24 213 l 24 372 l 306 532 l 306 537 l 24 696 l 24 856 l 460 585 z "},"?":{"ha":696,"x_min":76,"x_max":626,"o":"m 265 378 l 266 515 q 274 604 266 572 q 310 680 281 635 l 390 806 q 446 976 446 896 q 417 1066 446 1032 q 339 1101 388 1101 q 233 911 233 1101 l 233 855 l 94 855 q 76 994 76 952 q 144 1171 76 1103 q 346 1239 212 1239 q 554 1169 483 1239 q 626 976 626 1099 q 602 851 626 911 q 524 719 578 792 l 469 646 q 424 566 433 595 q 415 475 415 536 l 415 378 l 265 378 m 244 120 q 350 253 244 253 q 429 219 401 253 q 456 120 456 186 q 428 24 456 58 q 349 -9 399 -9 q 272 24 300 -9 q 244 120 244 58 z "},"@":{"ha":1118,"x_min":61,"x_max":1057,"o":"m 61 348 l 61 641 q 77 829 61 743 q 121 975 94 914 q 188 1081 149 1035 q 271 1156 228 1128 q 364 1203 313 1185 q 461 1227 415 1221 q 558 1234 508 1234 q 657 1229 611 1234 q 755 1207 703 1223 q 849 1165 807 1191 q 931 1095 892 1139 q 998 992 971 1050 q 1041 849 1025 933 q 1057 663 1057 765 l 1057 519 q 1054 398 1057 452 q 1041 292 1050 344 q 1016 203 1032 241 q 977 136 1000 165 q 921 93 954 107 q 844 78 887 78 q 733 110 774 78 q 673 209 692 142 q 609 113 650 146 q 518 79 568 79 q 484 80 499 79 q 448 89 469 82 q 409 109 426 96 q 375 145 393 121 q 345 203 357 170 q 326 287 334 236 q 318 403 318 338 l 318 568 q 332 707 318 648 q 365 799 345 767 q 411 851 384 831 q 461 876 439 870 q 507 881 483 881 q 643 797 593 881 l 656 871 l 789 871 l 789 305 q 850 203 789 203 q 879 213 867 203 q 902 249 891 222 q 918 332 912 276 q 923 473 923 388 l 923 663 q 915 792 923 732 q 893 894 907 851 q 860 972 880 937 q 818 1030 839 1007 q 769 1069 797 1053 q 716 1095 741 1086 q 662 1108 692 1103 q 609 1115 631 1114 q 559 1116 587 1116 q 494 1113 524 1116 q 425 1097 464 1109 q 356 1065 387 1085 q 294 1009 325 1045 q 242 924 262 973 q 208 803 221 876 q 195 641 195 730 l 195 321 q 203 189 195 250 q 226 84 212 128 q 262 3 240 39 q 308 -57 285 -33 q 362 -98 331 -81 q 419 -125 393 -115 q 481 -140 446 -134 q 541 -147 515 -146 q 600 -149 567 -149 q 696 -141 644 -149 q 783 -119 749 -133 l 783 -228 q 690 -260 756 -246 q 561 -273 624 -273 q 478 -268 518 -273 q 386 -247 438 -263 q 291 -204 334 -231 q 203 -129 247 -177 q 130 -18 160 -81 q 80 139 99 45 q 61 348 61 233 m 557 212 q 626 268 600 212 l 626 690 q 557 750 601 750 q 529 744 541 750 q 505 721 516 737 q 487 670 493 704 q 481 586 481 636 l 481 370 q 491 270 481 307 q 517 223 501 234 q 557 212 532 212 z "},"A":{"ha":656,"x_min":13,"x_max":643,"o":"m 13 0 l 227 1158 l 429 1158 l 643 0 l 465 0 l 433 208 l 222 208 l 191 0 l 13 0 m 242 340 l 413 340 l 332 917 l 324 917 l 242 340 z "},"B":{"ha":710,"x_min":99,"x_max":656,"o":"m 99 0 l 99 1158 l 277 1158 q 347 1157 316 1158 q 417 1148 378 1155 q 485 1132 456 1142 q 545 1101 515 1121 q 594 1054 574 1081 q 625 987 613 1027 q 637 896 637 946 l 637 840 q 591 689 637 751 q 483 612 545 627 l 483 606 q 612 525 568 591 q 656 355 656 460 l 656 296 q 643 187 656 235 q 603 107 629 139 q 545 54 577 75 q 468 21 512 32 q 380 5 423 9 q 283 0 337 0 l 99 0 m 271 663 l 305 663 q 463 814 463 663 l 463 861 q 426 988 463 945 q 305 1030 389 1030 l 271 1030 l 271 663 m 271 122 l 321 122 q 436 161 395 122 q 478 279 478 201 l 478 370 q 442 496 478 454 q 321 538 406 538 l 271 538 l 271 122 z "},"C":{"ha":635,"x_min":67,"x_max":595,"o":"m 349 -10 q 298 -7 322 -10 q 245 6 275 -4 q 192 33 216 16 q 143 79 168 49 q 103 148 119 109 q 77 247 87 188 q 67 377 67 305 l 67 787 q 77 918 67 860 q 104 1016 87 977 q 145 1084 121 1055 q 193 1129 169 1113 q 247 1154 217 1145 q 299 1166 276 1163 q 348 1168 321 1168 q 463 1149 414 1168 q 538 1096 511 1131 q 578 1018 566 1061 q 590 923 590 976 q 575 785 590 859 l 433 785 l 433 844 q 350 1034 433 1034 q 276 990 300 1034 q 252 840 252 947 l 252 311 q 273 163 252 204 q 349 123 294 123 q 410 157 385 123 q 435 257 435 191 l 435 370 l 595 370 l 595 263 q 349 -10 595 -9 z "},"D":{"ha":720,"x_min":99,"x_max":662,"o":"m 99 0 l 99 1158 l 281 1158 q 463 1139 401 1158 q 643 926 602 1094 q 662 747 662 850 l 662 411 q 509 39 662 120 q 313 0 439 2 q 281 0 300 0 l 99 0 m 275 123 l 319 123 q 385 131 359 123 q 430 156 411 138 q 459 207 449 174 q 474 284 469 239 q 478 397 478 329 l 478 756 q 474 869 478 824 q 459 946 469 913 q 430 997 449 979 q 385 1022 411 1015 q 319 1030 359 1030 l 275 1030 l 275 123 z "},"E":{"ha":563,"x_min":99,"x_max":535,"o":"m 99 0 l 99 1158 l 528 1158 l 528 1020 l 275 1020 l 275 673 l 471 673 l 471 535 l 275 535 l 275 138 l 535 138 l 535 0 l 99 0 z "},"F":{"ha":560,"x_min":99,"x_max":542,"o":"m 99 0 l 99 1158 l 542 1158 l 542 1020 l 275 1020 l 275 673 l 484 673 l 484 535 l 275 535 l 275 0 l 99 0 z "},"G":{"ha":710,"x_min":74,"x_max":647,"o":"m 333 -11 q 274 -4 303 -11 q 207 26 245 2 q 141 90 169 50 q 94 204 113 130 q 74 377 74 278 l 74 787 q 85 918 74 860 q 113 1016 96 977 q 156 1084 130 1055 q 208 1129 182 1113 q 264 1154 233 1145 q 319 1166 296 1163 q 371 1168 343 1168 q 490 1149 439 1168 q 569 1096 540 1131 q 612 1018 598 1061 q 625 923 625 975 q 609 785 625 871 l 469 785 l 469 840 q 366 1030 469 1030 q 283 987 309 1030 q 258 836 258 944 l 258 311 q 283 164 258 205 q 365 123 308 123 q 448 177 420 123 q 476 320 476 231 l 476 471 l 386 471 l 386 587 l 647 587 l 647 0 l 530 0 l 511 110 q 436 18 479 46 q 333 -11 393 -11 z "},"H":{"ha":759,"x_min":99,"x_max":659,"o":"m 99 0 l 99 1158 l 275 1158 l 275 673 l 483 673 l 483 1158 l 659 1158 l 659 0 l 483 0 l 483 535 l 275 535 l 275 0 l 99 0 z "},"I":{"ha":374,"x_min":99,"x_max":275,"o":"m 99 0 l 99 1158 l 275 1158 l 275 0 l 99 0 z "},"J":{"ha":576,"x_min":8,"x_max":481,"o":"m 238 -11 q 129 9 175 -11 q 57 65 83 29 q 20 146 32 102 q 8 245 8 191 q 27 420 8 330 l 168 420 l 165 279 q 181 156 165 191 q 236 122 197 122 q 287 152 270 122 q 304 256 304 182 l 306 1158 l 481 1158 l 481 281 q 468 159 481 212 q 432 75 454 106 q 377 23 410 43 q 311 -4 345 3 q 238 -11 278 -11 z "},"K":{"ha":682,"x_min":99,"x_max":681,"o":"m 99 0 l 99 1158 l 275 1158 l 275 652 l 280 652 l 481 1158 l 656 1158 l 432 615 l 681 0 l 493 0 l 280 551 l 275 551 l 275 0 l 99 0 z "},"L":{"ha":526,"x_min":99,"x_max":514,"o":"m 99 0 l 99 1158 l 275 1158 l 275 138 l 514 138 l 514 0 l 99 0 z "},"M":{"ha":978,"x_min":99,"x_max":879,"o":"m 99 0 l 99 1158 l 328 1158 l 439 710 q 487 441 456 643 l 492 441 q 540 710 524 643 l 654 1158 l 879 1158 l 879 0 l 715 0 l 715 383 q 733 905 715 705 l 720 905 l 545 149 l 434 149 l 258 905 l 245 905 q 263 383 263 705 l 263 0 l 99 0 z "},"N":{"ha":764,"x_min":99,"x_max":665,"o":"m 99 0 l 99 1158 l 241 1158 l 522 383 l 526 383 q 522 428 526 391 q 517 489 519 466 q 513 553 515 512 q 509 639 510 593 q 508 736 508 685 l 508 1158 l 665 1158 l 665 0 l 522 0 l 242 755 l 237 755 q 242 692 237 752 q 249 601 247 632 q 253 496 250 570 q 255 340 255 422 l 255 0 l 99 0 z "},"O":{"ha":708,"x_min":67,"x_max":641,"o":"m 355 -10 q 304 -7 328 -10 q 249 6 279 -4 q 194 33 219 16 q 145 79 170 49 q 104 148 121 109 q 77 247 87 188 q 67 377 67 305 l 67 787 q 78 918 67 860 q 105 1016 88 977 q 147 1084 122 1055 q 196 1129 172 1113 q 251 1154 220 1145 q 305 1166 281 1163 q 355 1168 328 1168 q 404 1166 382 1168 q 457 1155 427 1164 q 512 1130 488 1145 q 561 1086 536 1115 q 603 1018 586 1057 q 630 920 620 979 q 641 787 641 861 l 641 377 q 630 248 641 306 q 602 150 619 189 q 560 81 585 111 q 510 34 535 51 q 456 7 486 17 q 403 -7 427 -3 q 355 -10 380 -10 m 355 122 q 433 163 409 122 q 458 309 458 204 l 458 836 q 433 987 458 944 q 355 1030 409 1030 q 276 987 300 1030 q 251 836 251 944 l 251 309 q 275 163 251 204 q 355 122 300 122 z "},"P":{"ha":666,"x_min":99,"x_max":632,"o":"m 99 0 l 99 1158 l 275 1158 q 337 1157 310 1158 q 404 1147 364 1155 q 472 1125 443 1139 q 533 1084 501 1111 q 585 1020 565 1057 q 619 927 606 983 q 632 800 632 870 l 632 759 q 620 620 632 682 q 588 516 608 557 q 540 443 569 474 q 483 395 511 412 q 418 368 454 378 q 353 355 382 358 q 292 353 325 353 l 275 353 l 275 0 l 99 0 m 275 481 l 283 481 q 415 537 378 481 q 452 726 452 593 l 452 831 q 416 984 452 938 q 283 1030 380 1030 l 275 1030 l 275 481 z "},"Q":{"ha":722,"x_min":74,"x_max":648,"o":"m 291 -3 q 74 377 74 39 l 74 787 q 84 918 74 860 q 112 1016 95 977 q 154 1084 129 1055 q 203 1129 178 1113 q 258 1154 227 1145 q 312 1166 288 1163 q 362 1168 335 1168 q 411 1166 389 1168 q 464 1155 433 1164 q 518 1130 494 1145 q 568 1086 543 1115 q 610 1018 593 1057 q 637 920 627 979 q 648 787 648 861 l 648 377 q 635 237 648 300 q 603 135 623 175 q 554 66 583 95 q 498 22 526 37 q 439 -1 471 7 l 439 -11 q 467 -94 439 -73 q 560 -115 495 -115 q 597 -114 586 -115 l 597 -209 q 473 -235 539 -235 q 432 -232 451 -235 q 385 -219 412 -230 q 338 -189 357 -208 q 305 -135 319 -171 q 291 -49 291 -98 l 291 -3 m 362 122 q 440 163 416 122 q 465 309 465 204 l 465 836 q 440 987 465 944 q 362 1030 416 1030 q 282 987 307 1030 q 258 836 258 944 l 258 309 q 282 163 258 204 q 362 122 307 122 z "},"R":{"ha":711,"x_min":99,"x_max":677,"o":"m 99 0 l 99 1158 l 290 1158 q 351 1157 324 1158 q 416 1147 378 1155 q 483 1127 454 1140 q 543 1089 512 1114 q 594 1031 574 1065 q 628 945 614 997 q 641 827 641 892 l 641 798 q 491 463 641 538 l 677 0 l 491 0 l 337 433 l 271 433 l 271 0 l 99 0 m 271 560 l 298 560 q 428 605 391 560 q 465 766 465 650 l 465 858 q 428 990 465 950 q 298 1030 391 1030 l 271 1030 l 271 560 z "},"S":{"ha":648,"x_min":54,"x_max":600,"o":"m 54 235 q 72 372 54 298 l 208 372 l 208 315 q 234 170 208 218 q 322 122 260 122 q 399 150 372 122 q 425 230 425 178 q 409 325 425 284 q 344 427 392 366 l 161 645 q 59 906 59 776 q 130 1096 59 1024 q 326 1168 201 1168 q 453 1147 399 1168 q 535 1089 507 1126 q 577 1011 564 1053 q 591 923 591 970 q 590 896 591 909 q 586 866 589 882 q 583 842 584 850 q 577 812 581 833 q 572 785 573 791 l 436 785 l 436 840 q 323 1030 436 1030 q 250 1003 275 1030 q 225 929 225 976 q 238 853 225 884 q 280 784 251 823 l 484 537 q 571 395 543 461 q 600 256 600 328 q 525 61 600 133 q 323 -11 450 -11 q 215 3 262 -11 q 138 40 168 17 q 89 95 108 63 q 62 161 70 127 q 54 235 54 195 z "},"T":{"ha":587,"x_min":20,"x_max":568,"o":"m 206 0 l 206 1020 l 20 1020 l 20 1158 l 568 1158 l 568 1020 l 382 1020 l 382 0 l 206 0 z "},"U":{"ha":742,"x_min":95,"x_max":647,"o":"m 95 356 l 95 1158 l 272 1158 l 272 309 q 294 163 272 203 q 370 122 317 122 q 448 163 423 122 q 472 309 472 205 l 472 1158 l 647 1158 l 647 356 q 641 254 647 301 q 624 172 634 207 q 597 110 613 138 q 565 63 581 82 q 527 31 548 45 q 487 9 505 17 q 445 -3 468 1 q 406 -9 422 -7 q 370 -10 389 -10 q 322 -8 344 -10 q 272 3 301 -5 q 219 26 242 12 q 172 69 196 41 q 132 134 148 97 q 105 229 115 172 q 95 356 95 286 z "},"V":{"ha":648,"x_min":13,"x_max":635,"o":"m 223 0 l 13 1158 l 193 1158 l 320 241 l 328 241 l 456 1158 l 635 1158 l 424 0 l 223 0 z "},"W":{"ha":1003,"x_min":25,"x_max":977,"o":"m 192 0 l 25 1158 l 193 1158 l 271 458 l 280 295 l 297 295 l 313 479 l 438 1158 l 578 1158 l 698 479 l 711 295 l 729 295 l 737 458 l 808 1158 l 977 1158 l 815 0 l 637 0 l 541 557 l 511 799 l 498 799 l 469 557 l 368 0 l 192 0 z "},"X":{"ha":637,"x_min":22,"x_max":614,"o":"m 22 0 l 234 583 l 22 1158 l 210 1158 l 318 788 l 325 788 l 433 1158 l 614 1158 l 402 583 l 614 0 l 433 0 l 323 372 l 312 372 l 197 0 l 22 0 z "},"Y":{"ha":650,"x_min":3,"x_max":647,"o":"m 237 0 l 237 386 l 3 1158 l 180 1158 l 322 604 l 330 604 l 471 1158 l 647 1158 l 412 386 l 412 0 l 237 0 z "},"Z":{"ha":587,"x_min":26,"x_max":567,"o":"m 26 0 l 26 93 l 370 1020 l 78 1020 l 78 1158 l 567 1158 l 567 1065 l 223 138 l 547 138 l 547 0 l 26 0 z "},"[":{"ha":526,"x_min":94,"x_max":437,"o":"m 94 -174 l 94 1331 l 437 1331 l 437 1201 l 245 1201 l 245 -45 l 437 -45 l 437 -174 l 94 -174 z "},"\\":{"ha":374,"x_min":7,"x_max":368,"o":"m 219 -221 l 7 1278 l 155 1278 l 368 -221 l 219 -221 z "},"]":{"ha":526,"x_min":89,"x_max":431,"o":"m 89 -45 l 281 -45 l 281 1201 l 89 1201 l 89 1331 l 431 1331 l 431 -174 l 89 -174 l 89 -45 z "},"^":{"ha":650,"x_min":24,"x_max":627,"o":"m 24 188 l 243 1170 l 401 1170 l 627 188 l 478 188 l 368 724 l 334 951 l 317 951 l 280 724 l 172 188 l 24 188 z "},"_":{"ha":937,"x_min":-3,"x_max":940,"o":"m -3 -117 l 940 -117 l 940 -227 l -3 -227 l -3 -117 z "},"`":{"ha":466,"x_min":77,"x_max":389,"o":"m 304 991 l 77 1252 l 192 1345 l 389 1063 l 304 991 z "},"a":{"ha":627,"x_min":37,"x_max":537,"o":"m 217 -10 q 85 53 133 -10 q 37 214 37 116 q 90 394 37 325 q 255 519 142 463 q 370 568 304 543 l 370 691 q 369 732 370 716 q 364 767 368 749 q 351 795 359 785 q 328 812 343 806 q 292 819 313 819 q 224 786 251 819 q 197 679 197 753 l 197 638 l 66 638 q 54 730 54 691 q 121 888 54 832 q 298 945 188 945 q 485 887 433 945 q 537 699 537 829 l 537 0 l 410 0 l 397 80 q 322 14 369 39 q 217 -10 275 -10 m 293 122 q 370 161 336 122 l 370 453 q 303 420 323 433 q 233 349 261 395 q 205 241 205 304 q 227 154 205 185 q 293 122 248 122 z "},"b":{"ha":671,"x_min":88,"x_max":604,"o":"m 88 0 l 88 1234 l 260 1234 l 260 985 l 254 861 l 255 861 q 410 944 315 944 q 439 942 426 944 q 474 933 453 941 q 511 912 494 925 q 546 874 528 899 q 576 814 564 848 q 596 727 588 780 q 604 609 604 674 l 604 326 q 404 -11 604 -11 q 237 87 297 -11 l 222 0 l 88 0 m 260 189 q 345 122 289 122 q 409 159 387 122 q 431 292 431 195 l 431 650 q 410 783 431 747 q 346 819 388 819 q 260 756 292 819 l 260 189 z "},"c":{"ha":591,"x_min":64,"x_max":541,"o":"m 306 -10 q 125 88 186 -10 q 64 382 64 186 l 64 559 q 74 692 64 633 q 99 791 83 752 q 138 860 115 831 q 183 905 161 890 q 233 930 205 921 q 282 942 261 940 q 326 945 302 945 q 483 893 425 945 q 541 739 541 841 q 529 638 541 683 l 392 638 l 392 669 q 321 819 392 819 q 257 774 277 819 q 237 612 237 728 l 237 347 q 256 172 237 222 q 325 122 275 122 q 373 152 354 122 q 392 251 392 182 l 392 280 l 540 280 l 540 244 q 482 52 540 113 q 306 -10 424 -10 z "},"d":{"ha":670,"x_min":66,"x_max":582,"o":"m 267 -11 q 66 326 66 -11 l 66 623 q 75 739 66 687 q 97 824 84 791 q 130 881 110 857 q 167 917 150 905 q 207 935 184 928 q 242 943 229 942 q 271 944 255 944 q 356 921 318 944 q 416 866 394 899 l 416 867 l 411 985 l 411 1234 l 582 1234 l 582 0 l 448 0 l 433 87 q 267 -11 374 -11 m 326 122 q 411 189 382 122 l 411 751 q 325 819 380 819 q 290 812 304 819 q 263 787 275 805 q 245 735 251 770 q 239 650 239 701 l 239 292 q 251 187 239 226 q 280 135 262 148 q 326 122 298 122 z "},"e":{"ha":625,"x_min":64,"x_max":568,"o":"m 313 -10 q 127 84 190 -10 q 64 382 64 178 l 64 559 q 74 692 64 633 q 100 791 84 752 q 139 860 115 831 q 185 905 162 890 q 237 930 208 921 q 287 942 265 940 q 333 945 308 945 q 405 936 372 945 q 469 907 438 928 q 521 853 500 886 q 555 770 543 821 q 568 653 568 719 q 546 435 568 533 l 236 435 l 236 340 q 257 169 236 216 q 336 122 278 122 q 394 152 371 122 q 417 251 417 182 l 417 280 l 560 280 l 560 244 q 498 52 560 114 q 313 -10 435 -10 m 236 550 l 408 550 q 411 646 411 576 q 390 778 411 736 q 325 819 368 819 q 257 772 278 819 q 236 607 236 724 l 236 550 z "},"f":{"ha":418,"x_min":31,"x_max":428,"o":"m 111 0 l 111 812 l 31 812 l 31 934 l 111 934 l 111 1001 q 126 1124 111 1074 q 170 1199 141 1174 q 233 1235 199 1225 q 314 1245 267 1245 q 428 1222 382 1245 l 428 1101 q 364 1109 399 1109 q 303 1083 327 1109 q 280 1001 280 1058 l 280 934 l 410 934 l 410 812 l 280 812 l 280 0 l 111 0 z "},"g":{"ha":673,"x_min":66,"x_max":582,"o":"m 106 -64 l 228 -64 q 250 -149 228 -123 q 319 -174 272 -174 q 390 -144 363 -174 q 416 -35 416 -114 l 416 112 q 267 39 360 39 q 66 377 66 39 l 66 623 q 75 736 66 686 q 95 820 83 787 q 126 877 107 852 q 162 913 144 901 q 201 933 179 926 q 238 942 223 941 q 271 944 254 944 q 433 842 381 944 l 448 935 l 582 935 l 582 38 q 518 -213 582 -124 q 321 -302 454 -302 q 234 -293 272 -302 q 164 -265 196 -285 q 115 -209 132 -245 q 98 -118 98 -172 q 106 -64 98 -95 m 326 172 q 411 240 382 172 l 411 751 q 325 819 380 819 q 290 812 304 819 q 263 787 275 805 q 245 735 251 770 q 239 650 239 701 l 239 343 q 261 209 239 246 q 326 172 283 172 z "},"h":{"ha":693,"x_min":88,"x_max":604,"o":"m 88 0 l 88 1234 l 260 1234 l 260 1014 l 251 854 q 433 945 317 945 q 559 886 515 945 q 604 715 604 828 l 604 0 l 432 0 l 432 709 q 414 794 432 769 q 357 819 395 819 q 306 802 332 819 q 260 754 279 784 l 260 0 l 88 0 z "},"i":{"ha":353,"x_min":77,"x_max":284,"o":"m 180 1067 q 104 1097 132 1067 q 77 1179 77 1126 q 103 1263 77 1238 q 180 1288 130 1288 q 284 1179 284 1288 q 257 1097 284 1126 q 180 1067 230 1067 m 91 0 l 91 934 l 262 934 l 262 0 l 91 0 z "},"j":{"ha":353,"x_min":-5,"x_max":284,"o":"m 180 1067 q 104 1097 132 1067 q 77 1179 77 1126 q 103 1263 77 1238 q 180 1288 130 1288 q 284 1179 284 1288 q 257 1097 284 1126 q 180 1067 230 1067 m 91 -79 l 91 934 l 262 934 l 262 -57 q 252 -160 262 -116 q 225 -231 242 -205 q 184 -274 209 -258 q 134 -295 159 -290 q 78 -301 109 -301 q -5 -285 31 -301 l -5 -185 q 17 -186 9 -186 q 91 -79 91 -186 z "},"k":{"ha":639,"x_min":91,"x_max":640,"o":"m 91 0 l 91 1234 l 262 1234 l 262 524 l 268 524 l 455 934 l 620 934 l 412 507 l 640 0 l 465 0 l 268 463 l 262 463 l 262 0 l 91 0 z "},"l":{"ha":353,"x_min":91,"x_max":262,"o":"m 91 0 l 91 1234 l 262 1234 l 262 0 l 91 0 z "},"m":{"ha":1031,"x_min":88,"x_max":941,"o":"m 88 0 l 88 934 l 221 934 l 236 834 l 236 833 q 430 945 306 945 q 581 839 542 945 q 771 945 651 945 q 897 886 853 945 q 941 715 941 828 l 941 0 l 770 0 l 770 709 q 751 794 770 770 q 690 819 733 819 q 643 802 667 819 q 600 754 619 785 q 600 730 600 746 l 600 0 l 429 0 l 429 709 q 410 794 429 770 q 349 819 392 819 q 302 802 326 819 q 260 755 279 785 l 260 0 l 88 0 z "},"n":{"ha":692,"x_min":88,"x_max":602,"o":"m 88 0 l 88 934 l 220 934 l 236 834 l 236 833 q 431 945 306 945 q 558 886 513 945 q 602 715 602 828 l 602 0 l 431 0 l 431 709 q 412 794 431 769 q 356 819 394 819 q 305 802 330 819 q 260 755 279 785 l 260 0 l 88 0 z "},"o":{"ha":644,"x_min":64,"x_max":581,"o":"m 323 -10 q 250 -3 282 -10 q 181 28 218 3 q 120 96 144 54 q 80 217 96 139 q 64 401 64 294 l 64 547 q 72 683 64 623 q 95 785 81 744 q 130 856 109 826 q 173 903 151 886 q 222 929 194 920 q 273 942 250 939 q 324 945 296 945 q 374 942 352 945 q 424 930 396 939 q 472 904 452 920 q 514 858 493 888 q 550 787 536 828 q 572 685 564 746 q 581 547 581 624 l 581 401 q 572 264 581 326 q 549 161 563 203 q 513 87 534 119 q 470 37 492 56 q 421 8 448 19 q 372 -7 395 -3 q 323 -10 349 -10 m 325 122 q 390 173 372 122 q 408 355 408 224 l 408 585 q 390 767 408 715 q 325 819 371 819 q 256 767 276 819 q 236 585 236 715 l 236 355 q 256 173 236 224 q 325 122 276 122 z "},"p":{"ha":671,"x_min":88,"x_max":605,"o":"m 254 62 l 260 -53 l 260 -302 l 88 -302 l 88 934 l 222 934 l 238 836 q 411 944 304 944 q 440 942 427 944 q 474 933 454 941 q 512 912 495 925 q 546 874 528 899 q 576 814 564 848 q 597 727 589 780 q 605 609 605 674 l 605 326 q 597 208 605 261 q 576 121 589 155 q 546 61 564 87 q 510 22 527 35 q 471 1 493 9 q 435 -8 450 -7 q 404 -10 421 -10 q 254 62 310 -10 m 260 191 q 346 122 289 122 q 410 159 388 122 q 432 292 432 195 l 432 650 q 410 783 432 747 q 347 819 389 819 q 260 755 292 819 l 260 191 z "},"q":{"ha":670,"x_min":66,"x_max":582,"o":"m 267 -10 q 236 -8 250 -10 q 200 1 222 -7 q 161 22 178 9 q 126 61 144 35 q 95 121 107 87 q 75 208 83 155 q 66 326 66 261 l 66 609 q 75 727 66 674 q 95 814 83 780 q 125 874 107 848 q 160 912 143 899 q 197 933 176 925 q 231 942 218 941 q 260 944 245 944 q 432 837 368 944 l 448 934 l 582 934 l 582 -302 l 411 -302 l 411 -54 l 416 60 q 267 -10 360 -10 m 326 122 q 411 189 382 122 l 411 751 q 325 819 380 819 q 261 783 283 819 q 239 649 239 747 l 239 292 q 251 187 239 226 q 280 135 262 148 q 326 122 298 122 z "},"r":{"ha":534,"x_min":88,"x_max":514,"o":"m 88 0 l 88 934 l 214 934 l 229 839 q 293 918 256 890 q 370 945 330 945 q 514 763 514 945 q 491 636 514 704 l 372 636 l 372 723 q 326 819 372 819 q 260 769 285 819 l 260 0 l 88 0 z "},"s":{"ha":562,"x_min":52,"x_max":515,"o":"m 52 195 q 68 300 52 249 l 189 300 q 211 160 189 199 q 289 122 233 122 q 344 143 326 122 q 363 194 363 163 q 349 247 363 222 q 304 309 336 271 l 179 457 q 86 596 118 534 q 54 732 54 659 q 72 826 54 785 q 123 893 91 867 q 195 931 155 918 q 283 945 236 945 q 446 895 387 945 q 505 751 505 846 q 488 635 505 702 l 369 635 q 351 777 368 735 q 286 819 334 819 q 226 796 244 819 q 208 739 208 772 q 221 682 208 709 q 264 618 235 654 l 401 457 q 437 410 425 427 q 472 357 450 394 q 505 284 494 321 q 515 208 515 247 q 453 49 515 108 q 277 -10 390 -10 q 189 1 229 -10 q 118 35 149 12 q 69 98 86 58 q 52 195 52 139 z "},"t":{"ha":458,"x_min":35,"x_max":435,"o":"m 108 233 l 108 812 l 35 812 l 35 934 l 123 934 l 157 1176 l 279 1176 l 279 934 l 429 934 l 429 812 l 279 812 l 279 218 q 299 142 279 161 q 353 122 318 122 q 435 145 397 122 l 435 50 q 292 -11 385 -11 q 236 -5 261 -11 q 186 17 211 1 q 145 59 161 33 q 118 130 128 85 q 108 233 108 174 z "},"u":{"ha":692,"x_min":90,"x_max":602,"o":"m 90 218 l 90 934 l 261 934 l 261 232 q 279 147 261 172 q 336 122 298 122 q 430 177 390 122 l 430 934 l 602 934 l 602 0 l 471 0 l 454 100 l 453 100 q 260 -11 383 -11 q 134 47 178 -11 q 90 218 90 105 z "},"v":{"ha":593,"x_min":11,"x_max":581,"o":"m 221 0 l 11 934 l 182 934 l 272 437 l 294 239 l 300 239 l 326 437 l 415 934 l 581 934 l 368 0 l 221 0 z "},"w":{"ha":907,"x_min":24,"x_max":884,"o":"m 178 0 l 24 934 l 187 934 l 254 428 l 271 239 l 276 239 l 296 428 l 386 934 l 530 934 l 623 428 l 648 239 l 653 239 l 665 428 l 724 934 l 884 934 l 732 0 l 574 0 l 477 519 l 456 663 l 450 663 l 431 519 l 342 0 l 178 0 z "},"x":{"ha":612,"x_min":17,"x_max":595,"o":"m 17 0 l 211 474 l 26 934 l 202 934 l 302 628 l 303 628 l 409 934 l 573 934 l 396 490 l 595 0 l 419 0 l 304 322 l 298 322 l 182 0 l 17 0 z "},"y":{"ha":609,"x_min":12,"x_max":587,"o":"m 53 -180 q 181 -147 133 -191 q 233 -5 229 -102 l 12 934 l 186 934 l 285 417 l 313 239 l 319 239 l 338 417 l 418 934 l 587 934 l 390 -35 q 306 -237 363 -173 q 142 -302 249 -302 q 52 -285 98 -302 l 53 -180 z "},"z":{"ha":477,"x_min":15,"x_max":462,"o":"m 15 0 l 15 85 l 277 804 l 37 804 l 37 934 l 460 934 l 460 848 l 198 130 l 462 130 l 462 0 l 15 0 z "},"{":{"ha":608,"x_min":52,"x_max":519,"o":"m 193 87 l 193 374 q 167 483 193 452 q 87 518 141 515 l 52 520 l 52 642 l 86 644 q 166 679 140 647 q 192 787 192 710 l 192 1072 q 255 1268 192 1204 q 417 1332 318 1332 q 519 1314 461 1332 l 519 1210 l 493 1210 q 377 1190 410 1210 q 345 1116 345 1169 l 345 844 q 320 678 345 739 q 235 589 296 617 l 235 572 q 320 483 295 544 q 345 317 345 421 l 345 43 q 377 -31 345 -10 q 493 -52 410 -52 l 519 -52 l 519 -155 q 417 -174 463 -174 q 255 -110 318 -174 q 193 87 193 -45 z "},"|":{"ha":484,"x_min":168,"x_max":317,"o":"m 168 -221 l 168 1278 l 317 1278 l 317 -221 l 168 -221 z "},"}":{"ha":608,"x_min":89,"x_max":556,"o":"m 89 -52 l 115 -52 q 231 -31 198 -52 q 263 43 263 -10 l 263 317 q 288 483 263 421 q 372 572 313 544 l 372 589 q 287 678 311 617 q 263 844 263 739 l 263 1116 q 231 1190 263 1169 q 115 1210 198 1210 l 89 1210 l 89 1314 q 191 1332 146 1332 q 353 1268 290 1332 q 416 1072 416 1204 l 416 787 q 441 679 416 710 q 522 644 467 647 l 556 642 l 556 520 l 521 518 q 441 483 467 515 q 415 374 415 452 l 415 87 q 352 -110 415 -45 q 191 -174 290 -174 q 89 -155 145 -174 l 89 -52 z "},"~":{"ha":884,"x_min":88,"x_max":795,"o":"m 88 305 q 91 427 83 374 q 117 514 99 480 q 163 571 136 549 q 222 602 191 593 q 290 610 254 610 q 359 599 327 610 q 414 569 391 587 q 457 527 437 550 q 494 482 477 505 q 526 440 511 459 q 559 410 541 422 q 594 399 576 399 q 658 448 641 399 q 659 589 675 497 l 789 589 q 794 450 804 510 q 758 350 785 390 q 692 291 730 311 q 610 271 654 271 q 515 292 559 271 q 444 345 472 314 q 391 406 415 376 q 342 458 367 437 q 294 480 318 480 q 223 432 244 480 q 214 305 202 385 l 88 305 z "},"":{"ha":0,"x_min":0,"x_max":0,"o":""}," ":{"ha":297,"x_min":0,"x_max":0,"o":""},"¡":{"ha":468,"x_min":130,"x_max":342,"o":"m 141 -288 l 165 566 l 305 566 l 326 -288 l 141 -288 m 130 822 q 158 918 130 884 q 235 951 186 951 q 313 918 285 951 q 342 822 342 884 q 314 723 342 756 q 235 689 287 689 q 130 822 130 689 z "},"¢":{"ha":610,"x_min":77,"x_max":552,"o":"m 268 -5 q 124 106 172 12 q 77 382 77 201 l 77 559 q 267 937 77 890 l 267 1101 l 393 1101 l 393 940 q 510 877 468 927 q 552 739 552 826 q 541 638 552 683 l 410 638 l 410 669 q 391 780 410 741 q 334 819 371 819 q 270 771 290 819 q 249 607 249 724 l 249 340 q 268 170 249 217 q 338 122 288 122 q 389 153 368 122 q 410 251 410 183 l 410 287 l 549 287 l 549 244 q 511 75 549 136 q 394 -3 473 15 l 394 -175 l 268 -175 l 268 -5 z "},"£":{"ha":682,"x_min":45,"x_max":632,"o":"m 66 0 l 66 103 q 89 117 79 109 q 105 139 98 125 q 117 164 112 153 q 125 196 122 176 q 130 230 127 216 q 132 270 132 243 q 133 310 132 296 q 133 355 133 324 q 132 401 132 387 l 132 475 l 45 475 l 45 597 l 132 597 l 132 830 q 195 1085 132 1001 q 394 1168 258 1168 q 503 1149 456 1168 q 578 1095 551 1129 q 618 1019 605 1061 q 632 930 632 978 q 614 785 632 866 l 478 785 l 478 833 q 389 1031 478 1031 q 325 987 345 1031 q 305 830 305 943 l 305 597 l 494 597 l 494 475 l 305 475 l 305 382 q 252 138 305 216 l 616 138 l 616 0 l 66 0 z "},"¤":{"ha":873,"x_min":79,"x_max":794,"o":"m 172 243 l 79 348 l 201 457 q 177 582 177 515 q 203 716 177 654 l 79 827 l 172 932 l 291 823 q 426 858 348 858 q 574 817 511 858 l 700 932 l 794 827 l 661 709 q 685 582 685 652 q 661 466 685 522 l 794 348 l 700 243 l 575 358 q 426 315 512 315 q 290 351 348 315 l 172 243 m 426 469 q 508 502 478 469 q 537 580 537 536 q 508 669 537 633 q 426 705 479 705 q 354 669 378 705 q 330 580 330 633 q 355 501 330 534 q 426 469 380 469 z "},"¥":{"ha":682,"x_min":26,"x_max":656,"o":"m 93 147 l 93 269 l 253 269 l 253 371 l 93 371 l 93 493 l 253 493 l 26 1158 l 203 1158 l 337 673 l 345 673 l 479 1158 l 656 1158 l 428 493 l 587 493 l 587 371 l 428 371 l 428 269 l 587 269 l 587 147 l 428 147 l 428 0 l 253 0 l 253 147 l 93 147 z "},"¦":{"ha":484,"x_min":168,"x_max":317,"o":"m 168 637 l 168 1278 l 317 1278 l 317 637 l 168 637 m 168 -221 l 168 463 l 317 463 l 317 -221 l 168 -221 z "},"§":{"ha":720,"x_min":92,"x_max":628,"o":"m 113 -31 q 131 109 113 33 l 253 109 l 253 35 q 281 -84 253 -44 q 352 -125 309 -125 q 420 -94 396 -125 q 445 -17 445 -64 q 421 59 445 23 q 334 161 398 96 l 228 269 q 124 400 155 343 q 92 536 92 458 q 125 667 92 609 q 218 760 159 724 q 137 879 162 822 q 113 1005 113 937 q 181 1174 113 1109 q 368 1239 250 1239 q 478 1220 430 1239 q 553 1168 526 1200 q 594 1098 581 1136 q 608 1019 608 1060 q 590 880 608 955 l 468 880 l 468 954 q 440 1073 468 1032 q 368 1114 412 1114 q 300 1083 324 1114 q 275 1005 275 1053 q 299 929 275 966 q 387 828 323 892 l 492 719 q 596 588 564 646 q 628 452 628 530 q 595 321 628 379 q 503 228 562 263 q 583 108 558 165 q 608 -17 608 52 q 539 -185 608 -121 q 352 -250 470 -250 q 242 -231 290 -250 q 167 -179 195 -212 q 126 -110 140 -147 q 113 -31 113 -72 m 335 396 l 420 313 q 475 431 475 359 q 455 508 475 471 q 386 592 434 545 l 300 675 q 245 558 245 629 q 266 480 245 517 q 335 396 287 444 z "},"¨":{"ha":643,"x_min":77,"x_max":566,"o":"m 467 1062 q 395 1088 416 1062 q 374 1172 374 1115 q 394 1260 374 1232 q 467 1288 414 1288 q 543 1260 521 1288 q 566 1172 566 1233 q 543 1089 566 1117 q 467 1062 520 1062 m 170 1062 q 98 1089 119 1062 q 77 1172 77 1116 q 98 1260 77 1232 q 170 1288 118 1288 q 247 1260 224 1288 q 269 1172 269 1233 q 246 1089 269 1117 q 170 1062 224 1062 z "},"©":{"ha":989,"x_min":71,"x_max":918,"o":"m 71 471 l 71 699 q 86 858 71 786 q 126 978 101 929 q 187 1065 151 1027 q 260 1123 223 1102 q 341 1158 297 1145 q 421 1176 385 1171 q 496 1180 458 1180 q 570 1176 534 1180 q 649 1159 605 1172 q 729 1125 692 1146 q 802 1067 766 1104 q 863 981 838 1030 q 903 859 888 932 q 918 699 918 787 l 918 471 q 903 310 918 382 q 862 188 887 237 q 801 102 837 139 q 728 44 765 65 q 647 11 691 24 q 568 -6 604 -2 q 495 -10 533 -10 q 420 -6 456 -10 q 340 12 384 -1 q 259 46 296 25 q 186 105 222 68 q 126 191 151 142 q 86 312 101 240 q 71 471 71 383 m 176 454 q 188 329 176 385 q 218 234 199 273 q 263 168 236 196 q 317 123 290 139 q 378 97 345 107 q 438 84 411 87 q 495 81 465 81 q 551 84 525 81 q 611 96 577 87 q 671 121 644 106 q 725 165 698 137 q 771 232 753 194 q 802 328 790 271 q 814 454 814 385 l 814 715 q 802 842 814 785 q 772 937 791 899 q 727 1004 754 975 q 672 1048 699 1032 q 612 1073 645 1063 q 552 1085 578 1082 q 496 1088 526 1088 q 176 715 176 1088 l 176 454 m 513 198 q 286 499 286 198 l 286 673 q 294 775 286 730 q 316 851 302 821 q 349 904 329 881 q 388 939 368 926 q 431 958 408 951 q 473 968 455 966 q 512 970 492 970 q 602 954 563 970 q 661 913 640 939 q 691 859 682 887 q 701 800 701 830 q 689 692 701 756 l 578 692 l 578 730 q 509 857 578 857 q 451 823 469 857 q 432 705 432 789 l 432 456 q 451 343 432 375 q 513 311 471 311 q 561 337 543 311 q 578 414 578 363 l 578 472 l 704 472 l 704 422 q 655 256 704 313 q 513 198 606 199 z "},"ª":{"ha":567,"x_min":47,"x_max":493,"o":"m 210 440 q 135 455 168 440 q 84 494 102 469 q 56 550 65 519 q 47 614 47 580 q 260 865 47 778 q 338 895 309 887 l 338 1003 q 325 1063 338 1042 q 277 1083 311 1083 q 194 975 194 1083 l 194 944 l 71 944 q 61 1027 61 988 q 116 1145 61 1096 q 277 1194 170 1194 q 387 1178 342 1194 q 454 1132 432 1162 q 485 1070 476 1102 q 493 998 493 1039 l 493 453 l 376 453 l 365 502 q 296 458 339 476 q 210 440 252 440 m 271 552 q 338 578 308 552 l 338 797 q 294 780 309 787 q 225 729 256 764 q 195 644 195 693 q 215 577 195 602 q 271 552 235 552 z "},"«":{"ha":906,"x_min":98,"x_max":798,"o":"m 359 207 l 98 486 l 98 588 l 361 863 l 454 779 l 262 536 l 452 292 l 359 207 m 703 207 l 441 486 l 441 588 l 705 863 l 798 779 l 606 536 l 795 292 l 703 207 z "},"¬":{"ha":672,"x_min":31,"x_max":614,"o":"m 31 469 l 31 602 l 614 602 l 614 250 l 479 250 l 479 469 l 31 469 z "},"­":{"ha":1158,"x_min":0,"x_max":0,"o":""},"®":{"ha":1003,"x_min":71,"x_max":932,"o":"m 502 125 q 429 129 465 125 q 349 147 393 134 q 267 181 305 160 q 192 239 229 202 q 129 323 155 275 q 86 441 102 371 q 71 596 71 511 l 71 709 q 87 864 71 793 q 129 982 103 935 q 193 1067 155 1030 q 268 1124 230 1103 q 350 1158 306 1145 q 430 1176 395 1171 q 503 1180 466 1180 q 574 1176 539 1180 q 653 1159 609 1172 q 735 1126 697 1147 q 810 1069 772 1105 q 874 985 848 1033 q 916 866 900 937 q 932 709 932 795 l 932 596 q 916 439 932 510 q 873 320 900 368 q 809 236 847 272 q 734 179 772 199 q 652 145 696 158 q 573 129 608 133 q 502 125 538 125 m 502 224 q 561 227 533 224 q 623 239 589 230 q 684 265 656 249 q 739 309 711 281 q 785 375 766 337 q 815 468 804 412 q 827 591 827 523 l 827 714 q 816 837 827 782 q 786 930 804 892 q 740 996 768 968 q 685 1040 713 1024 q 623 1065 657 1056 q 562 1078 589 1075 q 503 1081 534 1081 q 443 1078 471 1081 q 380 1064 414 1074 q 318 1038 347 1055 q 263 994 290 1022 q 218 928 236 965 q 188 836 199 890 q 176 714 176 781 l 176 591 q 502 224 176 224 m 324 381 l 324 941 l 448 941 q 495 940 475 941 q 543 935 515 939 q 591 925 570 931 q 633 905 611 918 q 669 875 655 892 q 692 830 683 857 q 701 770 701 804 l 701 749 q 678 662 701 699 q 613 606 655 625 l 740 381 l 600 381 l 513 571 l 448 571 l 448 381 l 324 381 m 448 656 l 469 656 q 543 678 522 656 q 565 747 565 700 l 565 776 q 543 835 565 815 q 469 855 522 855 l 448 855 l 448 656 z "},"¯":{"ha":577,"x_min":77,"x_max":500,"o":"m 77 1107 l 77 1238 l 500 1238 l 500 1107 l 77 1107 z "},"°":{"ha":603,"x_min":72,"x_max":531,"o":"m 298 727 q 199 747 243 727 q 127 802 155 768 q 86 879 100 836 q 72 968 72 922 q 85 1062 72 1018 q 126 1141 99 1105 q 197 1197 153 1176 q 298 1217 241 1217 q 427 1182 373 1217 q 506 1091 481 1146 q 531 968 531 1036 q 522 899 531 933 q 494 833 513 864 q 448 779 475 802 q 382 741 420 755 q 298 727 343 727 m 296 858 q 369 890 343 858 q 395 966 395 923 q 370 1052 395 1017 q 296 1086 344 1086 q 230 1052 252 1086 q 208 966 208 1017 q 231 890 208 922 q 296 858 254 858 z "},"±":{"ha":621,"x_min":58,"x_max":563,"o":"m 242 364 l 242 583 l 58 583 l 58 715 l 242 715 l 242 928 l 377 928 l 377 715 l 563 715 l 563 583 l 377 583 l 377 364 l 242 364 m 58 115 l 58 247 l 563 247 l 563 115 l 58 115 z "},"²":{"ha":586,"x_min":74,"x_max":500,"o":"m 79 459 l 79 539 l 259 809 q 322 923 307 879 q 338 1009 338 968 q 276 1082 338 1082 q 227 1056 245 1082 q 208 980 208 1029 l 208 944 l 83 944 q 74 1020 74 999 q 130 1146 74 1099 q 283 1194 185 1194 q 341 1191 314 1194 q 398 1175 368 1187 q 450 1143 428 1162 q 486 1089 471 1123 q 500 1009 500 1055 q 479 902 500 955 q 401 769 458 849 l 267 576 l 500 576 l 500 459 l 79 459 z "},"³":{"ha":584,"x_min":58,"x_max":498,"o":"m 272 452 q 112 501 165 452 q 58 619 58 550 q 68 709 58 656 l 194 709 l 194 678 q 272 563 194 563 q 348 642 348 563 l 348 691 q 326 762 348 739 q 269 785 304 785 l 215 785 l 215 877 l 269 877 q 321 898 301 877 q 341 962 341 918 l 341 1010 q 272 1083 341 1083 q 201 975 201 1083 l 201 944 l 77 944 q 68 1027 68 988 q 121 1145 68 1096 q 277 1194 174 1194 q 336 1190 309 1194 q 394 1174 364 1186 q 444 1143 423 1162 q 478 1092 465 1124 q 492 1017 492 1059 l 492 975 q 402 834 480 868 l 402 829 q 473 772 448 810 q 498 686 498 734 l 498 642 q 484 562 498 596 q 447 507 469 527 q 393 473 425 486 q 333 456 362 460 q 272 452 304 452 z "},"´":{"ha":466,"x_min":77,"x_max":389,"o":"m 162 991 l 77 1063 l 274 1345 l 389 1252 l 162 991 z "},"µ":{"ha":703,"x_min":82,"x_max":609,"o":"m 83 -222 l 82 934 l 260 934 l 260 233 q 279 148 260 173 q 339 123 298 123 q 429 165 393 123 l 429 934 l 609 934 l 609 0 l 469 0 l 458 65 q 401 11 437 33 q 332 -11 366 -11 q 287 -3 307 -11 q 247 29 267 5 l 241 30 l 246 -222 l 83 -222 z "},"¶":{"ha":747,"x_min":67,"x_max":638,"o":"m 463 0 l 463 1158 l 638 1158 l 638 0 l 463 0 m 326 353 q 283 355 302 353 q 235 366 264 357 q 185 390 207 374 q 141 436 164 406 q 102 508 117 467 q 77 614 87 550 q 67 759 67 679 l 67 800 q 77 927 67 870 q 102 1020 87 983 q 141 1084 117 1057 q 185 1125 164 1111 q 235 1147 207 1139 q 282 1157 263 1155 q 326 1158 302 1158 l 347 1158 l 347 353 l 326 353 z "},"·":{"ha":380,"x_min":82,"x_max":294,"o":"m 82 538 q 188 672 82 672 q 267 638 239 672 q 294 538 294 604 q 266 441 294 476 q 187 407 237 407 q 110 441 138 407 q 82 538 82 475 z "},"¸":{"ha":403,"x_min":77,"x_max":324,"o":"m 320 -1 l 324 -71 q 317 -167 328 -125 q 291 -230 307 -208 q 252 -264 275 -251 q 213 -281 229 -277 q 180 -284 196 -284 q 77 -264 131 -284 l 82 -161 q 104 -162 90 -162 q 180 -137 155 -162 q 209 -38 205 -112 l 210 -8 l 273 92 l 320 -1 z "},"¹":{"ha":522,"x_min":45,"x_max":436,"o":"m 109 459 l 109 569 l 195 569 l 195 983 l 104 907 l 45 997 l 224 1171 l 345 1171 l 345 569 l 436 569 l 436 459 l 109 459 z "},"º":{"ha":623,"x_min":86,"x_max":552,"o":"m 319 452 q 257 458 287 452 q 195 482 227 465 q 139 527 163 499 q 101 600 116 554 q 86 705 86 646 l 86 942 q 101 1047 86 1001 q 139 1120 116 1093 q 195 1164 163 1147 q 257 1188 227 1181 q 319 1194 287 1194 q 381 1188 351 1194 q 444 1164 412 1181 q 499 1119 475 1146 q 537 1046 522 1092 q 552 941 552 1000 l 552 705 q 537 600 552 646 q 499 527 522 554 q 444 482 475 500 q 381 458 412 465 q 319 452 351 452 m 254 596 q 263 580 254 596 q 319 563 273 563 q 384 596 366 563 q 402 705 402 630 l 402 941 q 384 1049 402 1015 q 319 1083 366 1083 q 254 1049 273 1083 q 236 942 236 1016 l 236 705 q 254 596 236 630 z "},"»":{"ha":928,"x_min":113,"x_max":823,"o":"m 470 486 l 209 207 l 116 292 l 305 536 l 113 779 l 206 863 l 470 588 l 470 486 m 823 486 l 562 207 l 469 292 l 659 536 l 467 779 l 559 863 l 823 588 l 823 486 z "},"¼":{"ha":1238,"x_min":73,"x_max":1166,"o":"m 680 125 l 680 191 l 932 725 l 1107 725 l 1107 230 l 1166 230 l 1166 125 l 1107 125 l 1107 1 l 956 1 l 956 125 l 680 125 m 829 230 l 956 230 l 956 255 l 974 540 l 966 540 l 829 230 m 524 0 l 400 0 l 711 1159 l 835 1159 l 524 0 m 136 459 l 136 569 l 222 569 l 222 983 l 132 907 l 73 997 l 252 1171 l 373 1171 l 373 569 l 464 569 l 464 459 l 136 459 z "},"½":{"ha":1262,"x_min":73,"x_max":1183,"o":"m 524 0 l 400 0 l 711 1159 l 835 1159 l 524 0 m 136 459 l 136 569 l 222 569 l 222 983 l 132 907 l 73 997 l 252 1171 l 373 1171 l 373 569 l 464 569 l 464 459 l 136 459 m 762 0 l 762 80 l 942 350 q 1005 464 990 420 q 1021 550 1021 509 q 959 623 1021 623 q 910 596 928 623 q 891 521 891 570 l 891 485 l 766 485 q 757 561 757 540 q 812 687 757 640 q 966 735 868 735 q 1024 731 997 735 q 1081 715 1050 728 q 1133 684 1111 703 q 1168 630 1154 664 q 1183 550 1183 595 q 1162 443 1183 496 q 1084 310 1141 390 l 950 117 l 1183 117 l 1183 0 l 762 0 z "},"¾":{"ha":1267,"x_min":79,"x_max":1196,"o":"m 709 125 l 709 191 l 962 725 l 1137 725 l 1137 230 l 1196 230 l 1196 125 l 1137 125 l 1137 1 l 986 1 l 986 125 l 709 125 m 859 230 l 986 230 l 986 255 l 1004 540 l 996 540 l 859 230 m 552 0 l 429 0 l 740 1159 l 863 1159 l 552 0 m 292 452 q 132 501 185 452 q 79 619 79 550 q 88 709 79 656 l 214 709 l 214 678 q 292 563 214 563 q 368 642 368 563 l 368 691 q 347 762 368 739 q 290 785 325 785 l 235 785 l 235 877 l 290 877 q 341 898 321 877 q 361 962 361 918 l 361 1010 q 292 1083 361 1083 q 221 975 221 1083 l 221 944 l 98 944 q 88 1027 88 988 q 141 1145 88 1096 q 298 1194 194 1194 q 357 1190 329 1194 q 414 1174 385 1186 q 464 1143 444 1162 q 498 1092 485 1124 q 512 1017 512 1059 l 512 975 q 422 834 500 868 l 422 829 q 493 772 468 810 q 519 686 519 734 l 519 642 q 504 562 519 596 q 467 507 490 527 q 414 473 445 486 q 354 456 382 460 q 292 452 325 452 z "},"¿":{"ha":696,"x_min":63,"x_max":613,"o":"m 424 564 l 423 427 q 415 338 423 370 q 379 262 408 307 l 299 136 q 243 -34 243 46 q 272 -124 243 -90 q 350 -159 301 -159 q 456 31 456 -159 l 456 87 l 595 87 q 613 -52 613 -10 q 545 -229 613 -161 q 343 -297 477 -297 q 135 -227 206 -297 q 63 -34 63 -157 q 87 91 63 31 q 165 223 111 150 l 220 296 q 265 376 256 347 q 274 467 274 406 l 274 564 l 424 564 m 445 822 q 339 689 445 689 q 260 723 288 689 q 233 822 233 756 q 261 918 233 884 q 340 951 290 951 q 417 918 389 951 q 445 822 445 884 z "},"À":{"ha":656,"x_min":13,"x_max":643,"o":"m 13 0 l 227 1158 l 429 1158 l 643 0 l 465 0 l 433 208 l 222 208 l 191 0 l 13 0 m 242 340 l 413 340 l 332 917 l 324 917 l 242 340 m 329 1175 l 95 1288 l 182 1401 l 400 1255 l 329 1175 z "},"Á":{"ha":656,"x_min":13,"x_max":643,"o":"m 13 0 l 227 1158 l 429 1158 l 643 0 l 465 0 l 433 208 l 222 208 l 191 0 l 13 0 m 242 340 l 413 340 l 332 917 l 324 917 l 242 340 m 328 1175 l 257 1255 l 475 1401 l 562 1288 l 328 1175 z "},"Â":{"ha":656,"x_min":13,"x_max":643,"o":"m 13 0 l 227 1158 l 429 1158 l 643 0 l 465 0 l 433 208 l 222 208 l 191 0 l 13 0 m 242 340 l 413 340 l 332 917 l 324 917 l 242 340 m 404 1191 l 357 1279 l 330 1317 l 302 1279 l 245 1191 l 77 1191 l 247 1401 l 406 1401 l 572 1191 l 404 1191 z "},"Ã":{"ha":656,"x_min":13,"x_max":643,"o":"m 13 0 l 227 1158 l 429 1158 l 643 0 l 465 0 l 433 208 l 222 208 l 191 0 l 13 0 m 242 340 l 413 340 l 332 917 l 324 917 l 242 340 m 441 1173 q 311 1219 369 1173 q 284 1244 299 1230 q 262 1263 269 1258 q 247 1273 256 1269 q 228 1278 238 1278 q 199 1234 199 1278 l 199 1185 l 78 1185 q 75 1240 75 1226 q 117 1363 75 1326 q 225 1401 158 1401 q 291 1390 263 1401 q 347 1356 319 1379 q 362 1341 349 1354 q 380 1324 374 1329 q 396 1311 386 1320 q 416 1299 407 1303 q 433 1296 425 1296 q 467 1335 467 1296 l 467 1388 l 574 1388 q 582 1316 582 1343 q 541 1211 582 1249 q 441 1173 499 1173 z "},"Ä":{"ha":656,"x_min":13,"x_max":643,"o":"m 13 0 l 227 1158 l 429 1158 l 643 0 l 465 0 l 433 208 l 222 208 l 191 0 l 13 0 m 242 340 l 413 340 l 332 917 l 324 917 l 242 340 m 474 1187 q 402 1214 423 1187 q 382 1295 382 1241 q 402 1376 382 1350 q 474 1401 422 1401 q 551 1376 528 1401 q 573 1295 573 1351 q 550 1215 573 1243 q 474 1187 527 1187 m 178 1187 q 106 1214 127 1187 q 85 1295 85 1241 q 105 1376 85 1350 q 178 1401 125 1401 q 254 1376 232 1401 q 276 1295 276 1351 q 253 1215 276 1242 q 178 1187 231 1187 z "},"Å":{"ha":654,"x_min":12,"x_max":642,"o":"m 12 0 l 205 1035 q 138 1107 161 1061 q 115 1204 115 1152 q 169 1345 115 1289 q 328 1400 223 1400 q 491 1345 434 1400 q 547 1204 547 1290 q 522 1107 547 1154 q 449 1034 496 1061 l 642 0 l 466 0 l 434 208 l 220 208 l 189 0 l 12 0 m 327 1114 q 406 1141 378 1114 q 434 1202 434 1167 q 407 1266 434 1242 q 327 1291 379 1291 q 256 1266 280 1291 q 233 1202 233 1242 q 257 1140 233 1166 q 327 1114 282 1114 m 240 340 l 414 340 l 331 920 l 323 920 l 240 340 z "},"Æ":{"ha":859,"x_min":7,"x_max":841,"o":"m 7 0 l 300 1158 l 841 1158 l 841 1019 l 574 1019 l 574 675 l 782 675 l 782 523 l 574 523 l 574 139 l 841 139 l 841 0 l 400 0 l 400 208 l 227 208 l 184 0 l 7 0 m 254 334 l 400 334 l 400 920 l 375 920 l 254 334 z "},"Ç":{"ha":635,"x_min":67,"x_max":595,"o":"m 349 -10 q 298 -7 322 -10 q 245 6 275 -4 q 192 33 216 16 q 143 79 168 49 q 103 148 119 109 q 77 247 87 188 q 67 377 67 305 l 67 787 q 77 918 67 860 q 104 1016 87 977 q 145 1084 121 1055 q 193 1129 169 1113 q 247 1154 217 1145 q 299 1166 276 1163 q 348 1168 321 1168 q 463 1149 414 1168 q 538 1096 511 1131 q 578 1018 566 1061 q 590 923 590 976 q 575 785 590 859 l 433 785 l 433 844 q 350 1034 433 1034 q 276 990 300 1034 q 252 840 252 947 l 252 311 q 273 163 252 204 q 349 123 294 123 q 410 157 385 123 q 435 257 435 191 l 435 370 l 595 370 l 595 263 q 349 -10 595 -9 m 409 -1 l 413 -71 q 406 -167 416 -125 q 380 -230 396 -208 q 341 -264 363 -251 q 301 -281 318 -277 q 269 -284 285 -284 q 166 -264 220 -284 l 171 -161 q 193 -162 178 -162 q 269 -137 244 -162 q 298 -38 294 -112 l 299 -8 l 362 92 l 409 -1 z "},"È":{"ha":563,"x_min":92,"x_max":535,"o":"m 99 0 l 99 1158 l 528 1158 l 528 1020 l 275 1020 l 275 673 l 471 673 l 471 535 l 275 535 l 275 138 l 535 138 l 535 0 l 99 0 m 326 1175 l 92 1288 l 179 1401 l 397 1255 l 326 1175 z "},"É":{"ha":563,"x_min":99,"x_max":559,"o":"m 99 0 l 99 1158 l 528 1158 l 528 1020 l 275 1020 l 275 673 l 471 673 l 471 535 l 275 535 l 275 138 l 535 138 l 535 0 l 99 0 m 325 1175 l 254 1255 l 471 1401 l 559 1288 l 325 1175 z "},"Ê":{"ha":563,"x_min":74,"x_max":569,"o":"m 99 0 l 99 1158 l 528 1158 l 528 1020 l 275 1020 l 275 673 l 471 673 l 471 535 l 275 535 l 275 138 l 535 138 l 535 0 l 99 0 m 400 1191 l 353 1279 l 326 1317 l 299 1279 l 242 1191 l 74 1191 l 243 1401 l 402 1401 l 569 1191 l 400 1191 z "},"Ë":{"ha":563,"x_min":81,"x_max":570,"o":"m 99 0 l 99 1158 l 528 1158 l 528 1020 l 275 1020 l 275 673 l 471 673 l 471 535 l 275 535 l 275 138 l 535 138 l 535 0 l 99 0 m 471 1187 q 399 1214 420 1187 q 378 1295 378 1241 q 398 1376 378 1350 q 471 1401 418 1401 q 547 1376 525 1401 q 570 1295 570 1351 q 547 1215 570 1243 q 471 1187 524 1187 m 174 1187 q 102 1214 123 1187 q 81 1295 81 1241 q 102 1376 81 1350 q 174 1401 122 1401 q 251 1376 229 1401 q 273 1295 273 1351 q 250 1215 273 1242 q 174 1187 227 1187 z "},"Ì":{"ha":374,"x_min":-47,"x_max":275,"o":"m 99 0 l 99 1158 l 275 1158 l 275 0 l 99 0 m 186 1175 l -47 1288 l 40 1401 l 258 1255 l 186 1175 z "},"Í":{"ha":374,"x_min":99,"x_max":420,"o":"m 99 0 l 99 1158 l 275 1158 l 275 0 l 99 0 m 186 1175 l 115 1255 l 332 1401 l 420 1288 l 186 1175 z "},"Î":{"ha":374,"x_min":-65,"x_max":430,"o":"m 99 0 l 99 1158 l 275 1158 l 275 0 l 99 0 m 261 1191 l 214 1279 l 187 1317 l 160 1279 l 103 1191 l -65 1191 l 104 1401 l 263 1401 l 430 1191 l 261 1191 z "},"Ï":{"ha":374,"x_min":-58,"x_max":431,"o":"m 99 0 l 99 1158 l 275 1158 l 275 0 l 99 0 m 332 1187 q 260 1214 281 1187 q 239 1295 239 1241 q 259 1376 239 1350 q 332 1401 279 1401 q 408 1376 386 1401 q 431 1295 431 1351 q 408 1215 431 1243 q 332 1187 385 1187 m 35 1187 q -37 1214 -16 1187 q -58 1295 -58 1241 q -37 1376 -58 1350 q 35 1401 -17 1401 q 112 1376 90 1401 q 134 1295 134 1351 q 111 1215 134 1242 q 35 1187 88 1187 z "},"Ð":{"ha":703,"x_min":29,"x_max":638,"o":"m 87 0 l 87 554 l 29 554 l 29 691 l 87 691 l 87 1170 l 275 1170 q 337 1168 310 1170 q 404 1157 364 1166 q 474 1132 444 1147 q 536 1086 504 1116 q 589 1014 568 1056 q 624 909 610 972 q 638 766 638 845 l 638 411 q 630 294 638 347 q 608 201 621 240 q 573 131 594 162 q 530 78 552 99 q 480 42 509 58 q 428 19 452 27 q 374 7 404 12 q 322 1 343 2 q 275 0 302 0 l 87 0 m 262 122 l 283 122 q 416 183 376 122 q 456 378 456 244 l 456 779 q 417 969 456 908 q 283 1030 378 1030 l 262 1030 l 262 691 l 370 691 l 370 554 l 262 554 l 262 122 z "},"Ñ":{"ha":762,"x_min":98,"x_max":664,"o":"m 98 0 l 98 1158 l 240 1158 l 521 383 l 525 383 q 521 428 524 391 q 516 489 517 466 q 511 553 514 512 q 508 639 509 593 q 507 736 507 685 l 507 1158 l 664 1158 l 664 0 l 520 0 l 241 755 l 235 755 q 240 692 235 752 q 247 601 245 632 q 251 496 249 570 q 254 340 254 422 l 254 0 l 98 0 m 494 1173 q 363 1219 422 1173 q 337 1244 352 1230 q 315 1263 321 1258 q 300 1273 309 1269 q 281 1278 291 1278 q 252 1234 252 1278 l 252 1185 l 131 1185 q 128 1240 128 1226 q 170 1363 128 1326 q 278 1401 211 1401 q 344 1390 316 1401 q 400 1356 372 1379 q 415 1341 402 1354 q 433 1324 427 1329 q 449 1311 439 1320 q 469 1299 460 1303 q 486 1296 477 1296 q 519 1335 519 1296 l 519 1388 l 627 1388 q 635 1316 635 1343 q 593 1211 635 1249 q 494 1173 552 1173 z "},"Ò":{"ha":726,"x_min":76,"x_max":650,"o":"m 364 -10 q 313 -7 337 -10 q 258 6 288 -4 q 203 33 228 16 q 154 79 178 49 q 113 148 130 109 q 86 247 96 188 q 76 377 76 305 l 76 787 q 86 918 76 860 q 114 1016 97 977 q 156 1084 131 1055 q 205 1129 180 1113 q 260 1154 229 1145 q 314 1166 290 1163 q 364 1168 337 1168 q 413 1166 391 1168 q 466 1155 435 1164 q 520 1130 496 1145 q 570 1086 545 1115 q 612 1018 595 1057 q 639 920 629 979 q 650 787 650 861 l 650 377 q 639 248 650 306 q 611 150 628 189 q 569 81 593 111 q 519 34 544 51 q 465 7 494 17 q 412 -7 435 -3 q 364 -10 389 -10 m 364 122 q 442 163 418 122 q 467 309 467 204 l 467 836 q 442 987 467 944 q 364 1030 418 1030 q 284 987 309 1030 q 260 836 260 944 l 260 309 q 284 163 260 204 q 364 122 309 122 m 361 1175 l 127 1288 l 215 1401 l 433 1255 l 361 1175 z "},"Ó":{"ha":726,"x_min":76,"x_max":650,"o":"m 364 -10 q 313 -7 337 -10 q 258 6 288 -4 q 203 33 228 16 q 154 79 178 49 q 113 148 130 109 q 86 247 96 188 q 76 377 76 305 l 76 787 q 86 918 76 860 q 114 1016 97 977 q 156 1084 131 1055 q 205 1129 180 1113 q 260 1154 229 1145 q 314 1166 290 1163 q 364 1168 337 1168 q 413 1166 391 1168 q 466 1155 435 1164 q 520 1130 496 1145 q 570 1086 545 1115 q 612 1018 595 1057 q 639 920 629 979 q 650 787 650 861 l 650 377 q 639 248 650 306 q 611 150 628 189 q 569 81 593 111 q 519 34 544 51 q 465 7 494 17 q 412 -7 435 -3 q 364 -10 389 -10 m 364 122 q 442 163 418 122 q 467 309 467 204 l 467 836 q 442 987 467 944 q 364 1030 418 1030 q 284 987 309 1030 q 260 836 260 944 l 260 309 q 284 163 260 204 q 364 122 309 122 m 361 1175 l 290 1255 l 507 1401 l 595 1288 l 361 1175 z "},"Ô":{"ha":726,"x_min":76,"x_max":650,"o":"m 364 -10 q 313 -7 337 -10 q 258 6 288 -4 q 203 33 228 16 q 154 79 178 49 q 113 148 130 109 q 86 247 96 188 q 76 377 76 305 l 76 787 q 86 918 76 860 q 114 1016 97 977 q 156 1084 131 1055 q 205 1129 180 1113 q 260 1154 229 1145 q 314 1166 290 1163 q 364 1168 337 1168 q 413 1166 391 1168 q 466 1155 435 1164 q 520 1130 496 1145 q 570 1086 545 1115 q 612 1018 595 1057 q 639 920 629 979 q 650 787 650 861 l 650 377 q 639 248 650 306 q 611 150 628 189 q 569 81 593 111 q 519 34 544 51 q 465 7 494 17 q 412 -7 435 -3 q 364 -10 389 -10 m 364 122 q 442 163 418 122 q 467 309 467 204 l 467 836 q 442 987 467 944 q 364 1030 418 1030 q 284 987 309 1030 q 260 836 260 944 l 260 309 q 284 163 260 204 q 364 122 309 122 m 436 1191 l 389 1279 l 362 1317 l 335 1279 l 278 1191 l 110 1191 l 279 1401 l 438 1401 l 605 1191 l 436 1191 z "},"Õ":{"ha":726,"x_min":76,"x_max":650,"o":"m 364 -10 q 313 -7 337 -10 q 258 6 288 -4 q 203 33 228 16 q 154 79 178 49 q 113 148 130 109 q 86 247 96 188 q 76 377 76 305 l 76 787 q 86 918 76 860 q 114 1016 97 977 q 156 1084 131 1055 q 205 1129 180 1113 q 260 1154 229 1145 q 314 1166 290 1163 q 364 1168 337 1168 q 413 1166 391 1168 q 466 1155 435 1164 q 520 1130 496 1145 q 570 1086 545 1115 q 612 1018 595 1057 q 639 920 629 979 q 650 787 650 861 l 650 377 q 639 248 650 306 q 611 150 628 189 q 569 81 593 111 q 519 34 544 51 q 465 7 494 17 q 412 -7 435 -3 q 364 -10 389 -10 m 364 122 q 442 163 418 122 q 467 309 467 204 l 467 836 q 442 987 467 944 q 364 1030 418 1030 q 284 987 309 1030 q 260 836 260 944 l 260 309 q 284 163 260 204 q 364 122 309 122 m 473 1173 q 343 1219 401 1173 q 316 1244 332 1230 q 295 1263 301 1258 q 280 1273 289 1269 q 260 1278 271 1278 q 231 1234 231 1278 l 231 1185 l 111 1185 q 108 1240 108 1226 q 149 1363 108 1326 q 258 1401 191 1401 q 323 1390 296 1401 q 380 1356 351 1379 q 394 1341 382 1354 q 413 1324 407 1329 q 429 1311 418 1320 q 448 1299 439 1303 q 465 1296 457 1296 q 499 1335 499 1296 l 499 1388 l 607 1388 q 614 1316 614 1343 q 573 1211 614 1249 q 473 1173 532 1173 z "},"Ö":{"ha":726,"x_min":76,"x_max":650,"o":"m 364 -10 q 313 -7 337 -10 q 258 6 288 -4 q 203 33 228 16 q 154 79 178 49 q 113 148 130 109 q 86 247 96 188 q 76 377 76 305 l 76 787 q 86 918 76 860 q 114 1016 97 977 q 156 1084 131 1055 q 205 1129 180 1113 q 260 1154 229 1145 q 314 1166 290 1163 q 364 1168 337 1168 q 413 1166 391 1168 q 466 1155 435 1164 q 520 1130 496 1145 q 570 1086 545 1115 q 612 1018 595 1057 q 639 920 629 979 q 650 787 650 861 l 650 377 q 639 248 650 306 q 611 150 628 189 q 569 81 593 111 q 519 34 544 51 q 465 7 494 17 q 412 -7 435 -3 q 364 -10 389 -10 m 364 122 q 442 163 418 122 q 467 309 467 204 l 467 836 q 442 987 467 944 q 364 1030 418 1030 q 284 987 309 1030 q 260 836 260 944 l 260 309 q 284 163 260 204 q 364 122 309 122 m 507 1187 q 435 1214 456 1187 q 414 1295 414 1241 q 434 1376 414 1350 q 507 1401 454 1401 q 583 1376 561 1401 q 606 1295 606 1351 q 583 1215 606 1243 q 507 1187 559 1187 m 210 1187 q 138 1214 159 1187 q 117 1295 117 1241 q 138 1376 117 1350 q 210 1401 158 1401 q 287 1376 264 1401 q 309 1295 309 1351 q 286 1215 309 1242 q 210 1187 263 1187 z "},"×":{"ha":583,"x_min":45,"x_max":539,"o":"m 133 284 l 45 374 l 203 536 l 45 698 l 133 787 l 292 625 l 451 787 l 539 698 l 380 536 l 539 374 l 451 284 l 292 446 l 133 284 z "},"Ø":{"ha":705,"x_min":67,"x_max":641,"o":"m 583 1274 l 203 -116 l 118 -116 l 498 1274 l 583 1274 m 355 -10 q 304 -7 328 -10 q 249 6 279 -4 q 194 33 219 16 q 145 79 170 49 q 104 148 121 109 q 77 247 87 188 q 67 377 67 305 l 67 787 q 78 918 67 860 q 105 1016 88 977 q 147 1084 122 1055 q 196 1129 172 1113 q 251 1154 220 1145 q 305 1166 281 1163 q 355 1168 328 1168 q 404 1166 382 1168 q 457 1155 427 1164 q 512 1130 488 1145 q 561 1086 536 1115 q 603 1018 586 1057 q 630 920 620 979 q 641 787 641 861 l 641 377 q 630 248 641 306 q 602 150 619 189 q 560 81 585 111 q 510 34 535 51 q 456 7 486 17 q 403 -7 427 -3 q 355 -10 380 -10 m 355 122 q 433 163 409 122 q 458 309 458 204 l 458 836 q 433 987 458 944 q 355 1030 409 1030 q 276 987 300 1030 q 251 836 251 944 l 251 309 q 275 163 251 204 q 355 122 300 122 z "},"Ù":{"ha":749,"x_min":98,"x_max":650,"o":"m 98 356 l 98 1158 l 275 1158 l 275 309 q 297 163 275 203 q 372 122 319 122 q 450 163 426 122 q 475 309 475 205 l 475 1158 l 650 1158 l 650 356 q 643 254 650 301 q 626 172 637 207 q 600 110 616 138 q 567 63 584 82 q 529 31 551 45 q 489 9 508 17 q 448 -3 471 1 q 409 -9 425 -7 q 372 -10 392 -10 q 325 -8 347 -10 q 274 3 304 -5 q 222 26 245 12 q 175 69 199 41 q 134 134 151 97 q 108 229 118 172 q 98 356 98 286 m 380 1175 l 146 1288 l 234 1401 l 452 1255 l 380 1175 z "},"Ú":{"ha":749,"x_min":98,"x_max":650,"o":"m 98 356 l 98 1158 l 275 1158 l 275 309 q 297 163 275 203 q 372 122 319 122 q 450 163 426 122 q 475 309 475 205 l 475 1158 l 650 1158 l 650 356 q 643 254 650 301 q 626 172 637 207 q 600 110 616 138 q 567 63 584 82 q 529 31 551 45 q 489 9 508 17 q 448 -3 471 1 q 409 -9 425 -7 q 372 -10 392 -10 q 325 -8 347 -10 q 274 3 304 -5 q 222 26 245 12 q 175 69 199 41 q 134 134 151 97 q 108 229 118 172 q 98 356 98 286 m 380 1175 l 309 1255 l 526 1401 l 614 1288 l 380 1175 z "},"Û":{"ha":749,"x_min":98,"x_max":650,"o":"m 98 356 l 98 1158 l 275 1158 l 275 309 q 297 163 275 203 q 372 122 319 122 q 450 163 426 122 q 475 309 475 205 l 475 1158 l 650 1158 l 650 356 q 643 254 650 301 q 626 172 637 207 q 600 110 616 138 q 567 63 584 82 q 529 31 551 45 q 489 9 508 17 q 448 -3 471 1 q 409 -9 425 -7 q 372 -10 392 -10 q 325 -8 347 -10 q 274 3 304 -5 q 222 26 245 12 q 175 69 199 41 q 134 134 151 97 q 108 229 118 172 q 98 356 98 286 m 455 1191 l 408 1279 l 381 1317 l 354 1279 l 297 1191 l 129 1191 l 298 1401 l 457 1401 l 624 1191 l 455 1191 z "},"Ü":{"ha":749,"x_min":98,"x_max":650,"o":"m 98 356 l 98 1158 l 275 1158 l 275 309 q 297 163 275 203 q 372 122 319 122 q 450 163 426 122 q 475 309 475 205 l 475 1158 l 650 1158 l 650 356 q 643 254 650 301 q 626 172 637 207 q 600 110 616 138 q 567 63 584 82 q 529 31 551 45 q 489 9 508 17 q 448 -3 471 1 q 409 -9 425 -7 q 372 -10 392 -10 q 325 -8 347 -10 q 274 3 304 -5 q 222 26 245 12 q 175 69 199 41 q 134 134 151 97 q 108 229 118 172 q 98 356 98 286 m 526 1187 q 454 1214 475 1187 q 433 1295 433 1241 q 453 1376 433 1350 q 526 1401 473 1401 q 602 1376 580 1401 q 625 1295 625 1351 q 602 1215 625 1243 q 526 1187 578 1187 m 229 1187 q 157 1214 178 1187 q 136 1295 136 1241 q 157 1376 136 1350 q 229 1401 177 1401 q 306 1376 283 1401 q 328 1295 328 1351 q 305 1215 328 1242 q 229 1187 282 1187 z "},"Ý":{"ha":650,"x_min":3,"x_max":647,"o":"m 237 0 l 237 386 l 3 1158 l 180 1158 l 322 604 l 330 604 l 471 1158 l 647 1158 l 412 386 l 412 0 l 237 0 m 326 1175 l 254 1255 l 472 1401 l 559 1288 l 326 1175 z "},"Þ":{"ha":680,"x_min":99,"x_max":632,"o":"m 99 0 l 99 1158 l 273 1158 l 273 985 l 281 985 q 328 984 307 985 q 377 979 348 983 q 430 968 407 975 q 481 948 454 962 q 529 917 508 935 q 570 872 549 899 q 603 810 590 844 q 624 729 616 776 q 632 627 632 683 l 632 586 q 620 447 632 509 q 588 343 608 385 q 540 270 569 301 q 483 222 511 239 q 418 195 454 205 q 353 182 382 185 q 292 179 325 179 l 275 179 l 275 0 l 99 0 m 275 309 l 283 309 q 415 365 378 309 q 452 554 452 420 l 452 658 q 416 811 452 765 q 283 858 380 858 l 275 858 l 275 309 z "},"ß":{"ha":703,"x_min":91,"x_max":656,"o":"m 91 -300 l 91 955 q 163 1167 91 1095 q 362 1240 235 1240 q 560 1175 494 1240 q 627 1000 627 1109 q 611 893 627 945 q 559 769 595 841 q 520 693 530 720 q 510 643 510 666 q 543 536 510 608 l 606 402 q 633 324 625 349 q 649 266 642 299 q 656 201 656 232 q 645 121 656 159 q 614 54 635 84 q 557 5 593 23 q 473 -13 521 -13 q 368 7 418 -13 l 368 127 q 412 122 388 122 q 461 141 440 122 q 481 201 481 160 q 439 345 481 251 l 391 454 q 357 540 368 504 q 346 615 346 576 q 359 684 346 651 q 406 773 372 716 q 454 879 444 836 q 465 974 465 922 q 437 1068 465 1032 q 359 1105 410 1105 q 289 1081 315 1105 q 262 1007 262 1058 l 262 -300 l 91 -300 z "},"à":{"ha":627,"x_min":46,"x_max":547,"o":"m 227 -10 q 94 53 142 -10 q 46 214 46 116 q 99 394 46 325 q 264 519 152 463 q 380 568 313 543 l 380 691 q 379 732 380 716 q 373 767 378 749 q 361 795 369 785 q 338 812 353 806 q 302 819 323 819 q 234 786 260 819 q 207 679 207 753 l 207 638 l 76 638 q 64 730 64 691 q 131 888 64 832 q 307 945 197 945 q 494 887 442 945 q 547 699 547 829 l 547 0 l 419 0 l 407 80 q 331 14 378 39 q 227 -10 284 -10 m 302 122 q 380 161 346 122 l 380 453 q 313 420 332 433 q 242 349 271 395 q 214 241 214 304 q 236 154 214 185 q 302 122 258 122 m 286 991 l 60 1252 l 174 1345 l 371 1063 l 286 991 z "},"á":{"ha":627,"x_min":46,"x_max":547,"o":"m 227 -10 q 94 53 142 -10 q 46 214 46 116 q 99 394 46 325 q 264 519 152 463 q 380 568 313 543 l 380 691 q 379 732 380 716 q 373 767 378 749 q 361 795 369 785 q 338 812 353 806 q 302 819 323 819 q 234 786 260 819 q 207 679 207 753 l 207 638 l 76 638 q 64 730 64 691 q 131 888 64 832 q 307 945 197 945 q 494 887 442 945 q 547 699 547 829 l 547 0 l 419 0 l 407 80 q 331 14 378 39 q 227 -10 284 -10 m 302 122 q 380 161 346 122 l 380 453 q 313 420 332 433 q 242 349 271 395 q 214 241 214 304 q 236 154 214 185 q 302 122 258 122 m 286 991 l 201 1063 l 398 1345 l 513 1252 l 286 991 z "},"â":{"ha":627,"x_min":42,"x_max":547,"o":"m 227 -10 q 94 53 142 -10 q 46 214 46 116 q 99 394 46 325 q 264 519 152 463 q 380 568 313 543 l 380 691 q 379 732 380 716 q 373 767 378 749 q 361 795 369 785 q 338 812 353 806 q 302 819 323 819 q 234 786 260 819 q 207 679 207 753 l 207 638 l 76 638 q 64 730 64 691 q 131 888 64 832 q 307 945 197 945 q 494 887 442 945 q 547 699 547 829 l 547 0 l 419 0 l 407 80 q 331 14 378 39 q 227 -10 284 -10 m 302 122 q 380 161 346 122 l 380 453 q 313 420 332 433 q 242 349 271 395 q 214 241 214 304 q 236 154 214 185 q 302 122 258 122 m 382 1007 l 322 1151 l 288 1267 l 254 1151 l 190 1007 l 42 1007 l 225 1401 l 343 1401 l 530 1007 l 382 1007 z "},"ã":{"ha":627,"x_min":33,"x_max":547,"o":"m 227 -10 q 94 53 142 -10 q 46 214 46 116 q 99 394 46 325 q 264 519 152 463 q 380 568 313 543 l 380 691 q 379 732 380 716 q 373 767 378 749 q 361 795 369 785 q 338 812 353 806 q 302 819 323 819 q 234 786 260 819 q 207 679 207 753 l 207 638 l 76 638 q 64 730 64 691 q 131 888 64 832 q 307 945 197 945 q 494 887 442 945 q 547 699 547 829 l 547 0 l 419 0 l 407 80 q 331 14 378 39 q 227 -10 284 -10 m 302 122 q 380 161 346 122 l 380 453 q 313 420 332 433 q 242 349 271 395 q 214 241 214 304 q 236 154 214 185 q 302 122 258 122 m 399 1076 q 329 1089 359 1076 q 269 1129 298 1102 q 242 1154 257 1139 q 220 1173 227 1168 q 205 1183 214 1179 q 186 1187 196 1187 q 157 1144 157 1187 l 157 1095 l 36 1095 q 33 1151 33 1136 q 75 1279 33 1240 q 183 1318 116 1318 q 249 1305 221 1318 q 305 1265 277 1293 q 320 1251 307 1263 q 338 1234 332 1239 q 354 1221 344 1230 q 374 1209 365 1213 q 391 1206 382 1206 q 425 1246 425 1206 l 425 1305 l 532 1305 q 540 1233 540 1261 q 499 1118 540 1159 q 399 1076 458 1076 z "},"ä":{"ha":627,"x_min":43,"x_max":547,"o":"m 227 -10 q 94 53 142 -10 q 46 214 46 116 q 99 394 46 325 q 264 519 152 463 q 380 568 313 543 l 380 691 q 379 732 380 716 q 373 767 378 749 q 361 795 369 785 q 338 812 353 806 q 302 819 323 819 q 234 786 260 819 q 207 679 207 753 l 207 638 l 76 638 q 64 730 64 691 q 131 888 64 832 q 307 945 197 945 q 494 887 442 945 q 547 699 547 829 l 547 0 l 419 0 l 407 80 q 331 14 378 39 q 227 -10 284 -10 m 302 122 q 380 161 346 122 l 380 453 q 313 420 332 433 q 242 349 271 395 q 214 241 214 304 q 236 154 214 185 q 302 122 258 122 m 432 1062 q 360 1088 381 1062 q 340 1172 340 1115 q 360 1260 340 1232 q 432 1288 380 1288 q 509 1260 486 1288 q 531 1172 531 1233 q 508 1089 531 1117 q 432 1062 486 1062 m 136 1062 q 64 1089 85 1062 q 43 1172 43 1116 q 63 1260 43 1232 q 136 1288 83 1288 q 212 1260 190 1288 q 234 1172 234 1233 q 212 1089 234 1117 q 136 1062 189 1062 z "},"å":{"ha":627,"x_min":46,"x_max":547,"o":"m 227 -10 q 94 53 142 -10 q 46 214 46 116 q 99 394 46 325 q 264 519 152 463 q 380 568 313 543 l 380 691 q 379 732 380 716 q 373 767 378 749 q 361 795 369 785 q 338 812 353 806 q 302 819 323 819 q 234 786 260 819 q 207 679 207 753 l 207 638 l 76 638 q 64 730 64 691 q 131 888 64 832 q 307 945 197 945 q 494 887 442 945 q 547 699 547 829 l 547 0 l 419 0 l 407 80 q 331 14 378 39 q 227 -10 284 -10 m 302 122 q 380 161 346 122 l 380 453 q 313 420 332 433 q 242 349 271 395 q 214 241 214 304 q 236 154 214 185 q 302 122 258 122 m 286 984 q 192 1001 234 984 q 125 1048 151 1019 q 86 1114 100 1078 q 73 1192 73 1151 q 86 1271 73 1234 q 124 1337 99 1308 q 191 1383 149 1367 q 286 1400 233 1400 q 449 1340 392 1400 q 506 1192 506 1280 q 492 1117 506 1153 q 452 1050 478 1080 q 383 1002 426 1021 q 286 984 340 984 m 286 1095 q 365 1123 336 1095 q 393 1189 393 1152 q 365 1261 393 1233 q 286 1290 337 1290 q 215 1261 239 1290 q 191 1189 191 1232 q 216 1122 191 1150 q 286 1095 241 1095 z "},"æ":{"ha":915,"x_min":28,"x_max":854,"o":"m 28 213 q 81 392 28 323 q 245 516 133 461 q 355 565 307 547 l 355 685 q 355 720 355 707 q 353 750 355 732 q 346 779 351 768 q 333 799 341 789 q 313 814 326 810 q 282 819 300 819 q 214 786 241 819 q 187 680 187 753 l 187 635 l 56 635 q 44 727 44 688 q 111 884 44 828 q 288 939 178 939 q 461 863 399 939 l 467 863 q 545 922 500 903 q 633 940 589 940 q 715 926 677 940 q 785 880 753 911 q 836 789 817 848 q 854 650 854 730 q 831 433 854 533 l 527 433 l 527 338 q 548 165 527 214 q 626 117 568 117 q 686 147 662 117 q 709 245 709 177 l 709 279 l 848 279 l 848 243 q 791 51 848 113 q 621 -11 734 -11 q 431 102 491 -11 l 426 102 q 339 19 391 49 q 230 -11 288 -11 q 137 7 177 -11 q 74 56 98 25 q 40 127 51 87 q 28 213 28 166 m 527 547 l 694 547 q 697 646 697 574 q 677 778 697 738 q 615 819 658 819 q 548 772 568 819 q 527 608 527 725 l 527 547 m 195 239 q 216 152 195 184 q 283 119 238 119 q 355 158 321 119 l 355 451 q 293 418 323 437 q 223 348 251 393 q 195 239 195 302 z "},"ç":{"ha":591,"x_min":64,"x_max":541,"o":"m 306 -10 q 125 88 186 -10 q 64 382 64 186 l 64 559 q 74 692 64 633 q 99 791 83 752 q 138 860 115 831 q 183 905 161 890 q 233 930 205 921 q 282 942 261 940 q 326 945 302 945 q 483 893 425 945 q 541 739 541 841 q 529 638 541 683 l 392 638 l 392 669 q 321 819 392 819 q 257 774 277 819 q 237 612 237 728 l 237 347 q 256 172 237 222 q 325 122 275 122 q 373 152 354 122 q 392 251 392 182 l 392 280 l 540 280 l 540 244 q 482 52 540 113 q 306 -10 424 -10 m 368 3 l 372 -67 q 366 -163 376 -122 q 339 -226 355 -205 q 300 -261 323 -248 q 261 -277 277 -274 q 228 -281 244 -281 q 125 -260 179 -281 l 130 -158 q 153 -159 138 -159 q 229 -134 203 -159 q 257 -35 254 -109 l 258 -5 l 321 96 l 368 3 z "},"è":{"ha":627,"x_min":68,"x_max":572,"o":"m 317 -10 q 131 84 194 -10 q 68 382 68 178 l 68 559 q 78 692 68 633 q 104 791 88 752 q 143 860 119 831 q 189 905 166 890 q 241 930 212 921 q 291 942 269 940 q 337 945 312 945 q 409 936 376 945 q 473 907 442 928 q 525 853 504 886 q 559 770 547 821 q 572 653 572 719 q 550 435 572 533 l 240 435 l 240 340 q 261 169 240 216 q 340 122 282 122 q 398 152 375 122 q 421 251 421 182 l 421 280 l 564 280 l 564 244 q 502 52 564 114 q 317 -10 439 -10 m 240 550 l 412 550 q 415 646 415 576 q 394 778 415 736 q 329 819 372 819 q 261 772 282 819 q 240 607 240 724 l 240 550 m 330 991 l 103 1252 l 218 1345 l 414 1063 l 330 991 z "},"é":{"ha":627,"x_min":68,"x_max":572,"o":"m 317 -10 q 131 84 194 -10 q 68 382 68 178 l 68 559 q 78 692 68 633 q 104 791 88 752 q 143 860 119 831 q 189 905 166 890 q 241 930 212 921 q 291 942 269 940 q 337 945 312 945 q 409 936 376 945 q 473 907 442 928 q 525 853 504 886 q 559 770 547 821 q 572 653 572 719 q 550 435 572 533 l 240 435 l 240 340 q 261 169 240 216 q 340 122 282 122 q 398 152 375 122 q 421 251 421 182 l 421 280 l 564 280 l 564 244 q 502 52 564 114 q 317 -10 439 -10 m 240 550 l 412 550 q 415 646 415 576 q 394 778 415 736 q 329 819 372 819 q 261 772 282 819 q 240 607 240 724 l 240 550 m 330 991 l 245 1063 l 441 1345 l 556 1252 l 330 991 z "},"ê":{"ha":627,"x_min":68,"x_max":574,"o":"m 317 -10 q 131 84 194 -10 q 68 382 68 178 l 68 559 q 78 692 68 633 q 104 791 88 752 q 143 860 119 831 q 189 905 166 890 q 241 930 212 921 q 291 942 269 940 q 337 945 312 945 q 409 936 376 945 q 473 907 442 928 q 525 853 504 886 q 559 770 547 821 q 572 653 572 719 q 550 435 572 533 l 240 435 l 240 340 q 261 169 240 216 q 340 122 282 122 q 398 152 375 122 q 421 251 421 182 l 421 280 l 564 280 l 564 244 q 502 52 564 114 q 317 -10 439 -10 m 240 550 l 412 550 q 415 646 415 576 q 394 778 415 736 q 329 819 372 819 q 261 772 282 819 q 240 607 240 724 l 240 550 m 425 1007 l 366 1151 l 331 1267 l 297 1151 l 233 1007 l 85 1007 l 269 1401 l 387 1401 l 574 1007 l 425 1007 z "},"ë":{"ha":627,"x_min":68,"x_max":574,"o":"m 317 -10 q 131 84 194 -10 q 68 382 68 178 l 68 559 q 78 692 68 633 q 104 791 88 752 q 143 860 119 831 q 189 905 166 890 q 241 930 212 921 q 291 942 269 940 q 337 945 312 945 q 409 936 376 945 q 473 907 442 928 q 525 853 504 886 q 559 770 547 821 q 572 653 572 719 q 550 435 572 533 l 240 435 l 240 340 q 261 169 240 216 q 340 122 282 122 q 398 152 375 122 q 421 251 421 182 l 421 280 l 564 280 l 564 244 q 502 52 564 114 q 317 -10 439 -10 m 240 550 l 412 550 q 415 646 415 576 q 394 778 415 736 q 329 819 372 819 q 261 772 282 819 q 240 607 240 724 l 240 550 m 475 1062 q 404 1088 425 1062 q 383 1172 383 1115 q 403 1260 383 1232 q 475 1288 423 1288 q 552 1260 530 1288 q 574 1172 574 1233 q 552 1089 574 1117 q 475 1062 529 1062 m 179 1062 q 107 1089 128 1062 q 86 1172 86 1116 q 106 1260 86 1232 q 179 1288 127 1288 q 255 1260 233 1288 q 277 1172 277 1233 q 255 1089 277 1117 q 179 1062 233 1062 z "},"ì":{"ha":353,"x_min":-50,"x_max":262,"o":"m 91 0 l 91 934 l 262 934 l 262 0 l 91 0 m 177 991 l -50 1252 l 65 1345 l 262 1063 l 177 991 z "},"í":{"ha":353,"x_min":91,"x_max":404,"o":"m 91 0 l 91 934 l 262 934 l 262 0 l 91 0 m 177 991 l 92 1063 l 289 1345 l 404 1252 l 177 991 z "},"î":{"ha":353,"x_min":-67,"x_max":421,"o":"m 91 0 l 91 934 l 262 934 l 262 0 l 91 0 m 273 1007 l 213 1151 l 178 1267 l 144 1151 l 81 1007 l -67 1007 l 116 1401 l 234 1401 l 421 1007 l 273 1007 z "},"ï":{"ha":353,"x_min":-66,"x_max":422,"o":"m 91 0 l 91 934 l 262 934 l 262 0 l 91 0 m 323 1062 q 251 1088 272 1062 q 231 1172 231 1115 q 251 1260 231 1232 q 323 1288 271 1288 q 399 1260 377 1288 q 422 1172 422 1233 q 399 1089 422 1117 q 323 1062 376 1062 m 26 1062 q -45 1089 -24 1062 q -66 1172 -66 1116 q -46 1260 -66 1232 q 26 1288 -26 1288 q 103 1260 81 1288 q 125 1172 125 1233 q 102 1089 125 1117 q 26 1062 80 1062 z "},"ð":{"ha":658,"x_min":64,"x_max":592,"o":"m 332 -10 q 279 -7 302 -10 q 227 6 256 -4 q 176 34 198 16 q 132 83 154 52 q 96 157 110 114 q 73 263 81 199 q 64 405 64 326 l 64 539 q 74 678 64 616 q 98 780 83 740 q 136 850 113 821 q 179 896 158 880 q 225 921 199 911 q 267 932 250 930 q 303 934 284 934 q 382 927 370 934 q 289 1107 357 1023 l 219 1023 l 133 1095 l 203 1182 q 81 1216 145 1215 l 81 1329 q 279 1276 188 1329 l 354 1370 l 444 1291 l 371 1205 q 535 920 477 1099 q 592 535 592 742 l 592 405 q 583 265 592 328 q 559 159 574 202 q 524 85 545 117 q 480 36 502 54 q 430 7 458 18 q 380 -7 403 -3 q 332 -10 358 -10 m 333 122 q 397 171 382 122 q 412 353 412 219 l 412 785 q 333 819 393 819 q 286 803 302 819 q 259 739 269 787 q 250 597 250 690 l 250 353 q 266 171 250 220 q 333 122 282 122 z "},"ñ":{"ha":692,"x_min":89,"x_max":617,"o":"m 89 0 l 89 934 l 221 934 l 237 834 l 237 833 q 432 945 307 945 q 558 886 514 945 q 603 715 603 828 l 603 0 l 431 0 l 431 709 q 413 794 431 769 q 357 819 395 819 q 306 802 331 819 q 260 755 280 785 l 260 0 l 89 0 m 476 1076 q 406 1089 436 1076 q 346 1129 376 1102 q 319 1154 334 1139 q 298 1173 304 1168 q 282 1183 292 1179 q 263 1187 273 1187 q 234 1144 234 1187 l 234 1095 l 113 1095 q 111 1151 111 1136 q 152 1279 111 1240 q 260 1318 193 1318 q 326 1305 298 1318 q 382 1265 354 1293 q 397 1251 385 1263 q 415 1234 410 1239 q 432 1221 421 1230 q 451 1209 442 1213 q 468 1206 460 1206 q 502 1246 502 1206 l 502 1305 l 610 1305 q 617 1233 617 1261 q 576 1118 617 1159 q 476 1076 535 1076 z "},"ò":{"ha":650,"x_min":66,"x_max":583,"o":"m 326 -10 q 253 -3 285 -10 q 184 28 220 3 q 123 96 147 54 q 83 217 99 139 q 66 401 66 294 l 66 547 q 75 683 66 623 q 97 785 83 744 q 133 856 111 826 q 175 903 154 886 q 225 929 197 920 q 276 942 253 939 q 327 945 298 945 q 377 942 355 945 q 427 930 399 939 q 475 904 454 920 q 517 858 496 888 q 552 787 538 828 q 575 685 566 746 q 583 547 583 624 l 583 401 q 574 264 583 326 q 551 161 566 203 q 516 87 537 119 q 473 37 494 56 q 424 8 451 19 q 375 -7 397 -3 q 326 -10 352 -10 m 328 122 q 393 173 374 122 q 411 355 411 224 l 411 585 q 392 767 411 715 q 328 819 374 819 q 259 767 279 819 q 239 585 239 715 l 239 355 q 259 173 239 224 q 328 122 279 122 m 324 991 l 98 1252 l 212 1345 l 409 1063 l 324 991 z "},"ó":{"ha":650,"x_min":66,"x_max":583,"o":"m 326 -10 q 253 -3 285 -10 q 184 28 220 3 q 123 96 147 54 q 83 217 99 139 q 66 401 66 294 l 66 547 q 75 683 66 623 q 97 785 83 744 q 133 856 111 826 q 175 903 154 886 q 225 929 197 920 q 276 942 253 939 q 327 945 298 945 q 377 942 355 945 q 427 930 399 939 q 475 904 454 920 q 517 858 496 888 q 552 787 538 828 q 575 685 566 746 q 583 547 583 624 l 583 401 q 574 264 583 326 q 551 161 566 203 q 516 87 537 119 q 473 37 494 56 q 424 8 451 19 q 375 -7 397 -3 q 326 -10 352 -10 m 328 122 q 393 173 374 122 q 411 355 411 224 l 411 585 q 392 767 411 715 q 328 819 374 819 q 259 767 279 819 q 239 585 239 715 l 239 355 q 259 173 239 224 q 328 122 279 122 m 324 991 l 239 1063 l 436 1345 l 551 1252 l 324 991 z "},"ô":{"ha":650,"x_min":66,"x_max":583,"o":"m 326 -10 q 253 -3 285 -10 q 184 28 220 3 q 123 96 147 54 q 83 217 99 139 q 66 401 66 294 l 66 547 q 75 683 66 623 q 97 785 83 744 q 133 856 111 826 q 175 903 154 886 q 225 929 197 920 q 276 942 253 939 q 327 945 298 945 q 377 942 355 945 q 427 930 399 939 q 475 904 454 920 q 517 858 496 888 q 552 787 538 828 q 575 685 566 746 q 583 547 583 624 l 583 401 q 574 264 583 326 q 551 161 566 203 q 516 87 537 119 q 473 37 494 56 q 424 8 451 19 q 375 -7 397 -3 q 326 -10 352 -10 m 328 122 q 393 173 374 122 q 411 355 411 224 l 411 585 q 392 767 411 715 q 328 819 374 819 q 259 767 279 819 q 239 585 239 715 l 239 355 q 259 173 239 224 q 328 122 279 122 m 420 1007 l 360 1151 l 326 1267 l 292 1151 l 228 1007 l 80 1007 l 263 1401 l 381 1401 l 568 1007 l 420 1007 z "},"õ":{"ha":650,"x_min":66,"x_max":583,"o":"m 326 -10 q 253 -3 285 -10 q 184 28 220 3 q 123 96 147 54 q 83 217 99 139 q 66 401 66 294 l 66 547 q 75 683 66 623 q 97 785 83 744 q 133 856 111 826 q 175 903 154 886 q 225 929 197 920 q 276 942 253 939 q 327 945 298 945 q 377 942 355 945 q 427 930 399 939 q 475 904 454 920 q 517 858 496 888 q 552 787 538 828 q 575 685 566 746 q 583 547 583 624 l 583 401 q 574 264 583 326 q 551 161 566 203 q 516 87 537 119 q 473 37 494 56 q 424 8 451 19 q 375 -7 397 -3 q 326 -10 352 -10 m 328 122 q 393 173 374 122 q 411 355 411 224 l 411 585 q 392 767 411 715 q 328 819 374 819 q 259 767 279 819 q 239 585 239 715 l 239 355 q 259 173 239 224 q 328 122 279 122 m 437 1076 q 367 1089 397 1076 q 307 1129 336 1102 q 280 1154 295 1139 q 258 1173 264 1168 q 243 1183 252 1179 q 224 1187 234 1187 q 195 1144 195 1187 l 195 1095 l 74 1095 q 71 1151 71 1136 q 113 1279 71 1240 q 221 1318 154 1318 q 287 1305 259 1318 q 343 1265 315 1293 q 358 1251 345 1263 q 376 1234 370 1239 q 392 1221 382 1230 q 412 1209 403 1213 q 429 1206 420 1206 q 463 1246 463 1206 l 463 1305 l 570 1305 q 578 1233 578 1261 q 537 1118 578 1159 q 437 1076 496 1076 z "},"ö":{"ha":650,"x_min":66,"x_max":583,"o":"m 326 -10 q 253 -3 285 -10 q 184 28 220 3 q 123 96 147 54 q 83 217 99 139 q 66 401 66 294 l 66 547 q 75 683 66 623 q 97 785 83 744 q 133 856 111 826 q 175 903 154 886 q 225 929 197 920 q 276 942 253 939 q 327 945 298 945 q 377 942 355 945 q 427 930 399 939 q 475 904 454 920 q 517 858 496 888 q 552 787 538 828 q 575 685 566 746 q 583 547 583 624 l 583 401 q 574 264 583 326 q 551 161 566 203 q 516 87 537 119 q 473 37 494 56 q 424 8 451 19 q 375 -7 397 -3 q 326 -10 352 -10 m 328 122 q 393 173 374 122 q 411 355 411 224 l 411 585 q 392 767 411 715 q 328 819 374 819 q 259 767 279 819 q 239 585 239 715 l 239 355 q 259 173 239 224 q 328 122 279 122 m 470 1062 q 398 1088 419 1062 q 378 1172 378 1115 q 398 1260 378 1232 q 470 1288 418 1288 q 547 1260 524 1288 q 569 1172 569 1233 q 546 1089 569 1117 q 470 1062 524 1062 m 174 1062 q 102 1089 123 1062 q 81 1172 81 1116 q 101 1260 81 1232 q 174 1288 121 1288 q 250 1260 228 1288 q 272 1172 272 1233 q 250 1089 272 1117 q 174 1062 227 1062 z "},"÷":{"ha":566,"x_min":31,"x_max":536,"o":"m 283 707 q 217 736 242 707 q 192 817 192 766 q 284 924 192 924 q 371 817 371 924 q 348 736 371 766 q 283 707 326 707 m 31 469 l 31 602 l 536 602 l 536 469 l 31 469 m 283 146 q 216 175 241 146 q 191 256 191 204 q 283 363 191 363 q 370 256 370 363 q 348 175 370 204 q 283 146 325 146 z "},"ø":{"ha":650,"x_min":64,"x_max":581,"o":"m 581 1045 l 147 -116 l 68 -116 l 502 1045 l 581 1045 m 323 -10 q 250 -3 282 -10 q 181 28 218 3 q 120 96 144 54 q 80 217 96 139 q 64 401 64 294 l 64 547 q 72 683 64 623 q 95 785 81 744 q 130 856 109 826 q 173 903 151 886 q 222 929 194 920 q 273 942 250 939 q 324 945 296 945 q 374 942 352 945 q 424 930 396 939 q 472 904 452 920 q 514 858 493 888 q 550 787 536 828 q 572 685 564 746 q 581 547 581 624 l 581 401 q 572 264 581 326 q 549 161 563 203 q 513 87 534 119 q 470 37 492 56 q 421 8 448 19 q 372 -7 395 -3 q 323 -10 349 -10 m 325 122 q 390 173 372 122 q 408 355 408 224 l 408 585 q 390 767 408 715 q 325 819 371 819 q 256 767 276 819 q 236 585 236 715 l 236 355 q 256 173 236 224 q 325 122 276 122 z "},"ù":{"ha":692,"x_min":90,"x_max":602,"o":"m 90 218 l 90 934 l 261 934 l 261 232 q 279 147 261 172 q 336 122 298 122 q 430 177 390 122 l 430 934 l 602 934 l 602 0 l 471 0 l 454 100 l 453 100 q 260 -11 383 -11 q 134 47 178 -11 q 90 218 90 105 m 353 991 l 127 1252 l 241 1345 l 438 1063 l 353 991 z "},"ú":{"ha":692,"x_min":90,"x_max":602,"o":"m 90 218 l 90 934 l 261 934 l 261 232 q 279 147 261 172 q 336 122 298 122 q 430 177 390 122 l 430 934 l 602 934 l 602 0 l 471 0 l 454 100 l 453 100 q 260 -11 383 -11 q 134 47 178 -11 q 90 218 90 105 m 353 991 l 269 1063 l 465 1345 l 580 1252 l 353 991 z "},"û":{"ha":692,"x_min":90,"x_max":602,"o":"m 90 218 l 90 934 l 261 934 l 261 232 q 279 147 261 172 q 336 122 298 122 q 430 177 390 122 l 430 934 l 602 934 l 602 0 l 471 0 l 454 100 l 453 100 q 260 -11 383 -11 q 134 47 178 -11 q 90 218 90 105 m 449 1007 l 389 1151 l 355 1267 l 321 1151 l 257 1007 l 109 1007 l 292 1401 l 410 1401 l 597 1007 l 449 1007 z "},"ü":{"ha":692,"x_min":90,"x_max":602,"o":"m 90 218 l 90 934 l 261 934 l 261 232 q 279 147 261 172 q 336 122 298 122 q 430 177 390 122 l 430 934 l 602 934 l 602 0 l 471 0 l 454 100 l 453 100 q 260 -11 383 -11 q 134 47 178 -11 q 90 218 90 105 m 499 1062 q 428 1088 448 1062 q 407 1172 407 1115 q 427 1260 407 1232 q 499 1288 447 1288 q 576 1260 553 1288 q 598 1172 598 1233 q 575 1089 598 1117 q 499 1062 553 1062 m 203 1062 q 131 1089 152 1062 q 110 1172 110 1116 q 130 1260 110 1232 q 203 1288 151 1288 q 279 1260 257 1288 q 301 1172 301 1233 q 279 1089 301 1117 q 203 1062 256 1062 z "},"ý":{"ha":609,"x_min":17,"x_max":591,"o":"m 58 -180 q 186 -147 138 -191 q 238 -5 234 -102 l 17 934 l 191 934 l 290 417 l 318 239 l 323 239 l 343 417 l 422 934 l 591 934 l 395 -35 q 311 -237 368 -173 q 147 -302 254 -302 q 57 -285 103 -302 l 58 -180 m 314 991 l 229 1063 l 426 1345 l 541 1252 l 314 991 z "},"þ":{"ha":671,"x_min":88,"x_max":604,"o":"m 250 64 l 260 -40 l 260 -300 l 88 -300 l 88 1227 l 260 1227 l 260 980 l 254 857 l 255 857 q 410 939 315 939 q 439 938 426 939 q 474 928 453 936 q 511 908 494 921 q 546 869 528 895 q 576 810 564 844 q 596 724 588 777 q 604 606 604 671 l 604 325 q 404 -11 604 -11 q 315 12 355 -11 q 250 64 274 35 m 260 189 q 345 122 289 122 q 409 158 387 122 q 431 292 431 195 l 431 643 q 410 776 431 740 q 346 812 388 812 q 260 756 292 812 l 260 189 z "},"ÿ":{"ha":609,"x_min":17,"x_max":591,"o":"m 58 -180 q 186 -147 138 -191 q 238 -5 234 -102 l 17 934 l 191 934 l 290 417 l 318 239 l 323 239 l 343 417 l 422 934 l 591 934 l 395 -35 q 311 -237 368 -173 q 147 -302 254 -302 q 57 -285 103 -302 l 58 -180 m 460 1062 q 388 1088 409 1062 q 368 1172 368 1115 q 388 1260 368 1232 q 460 1288 408 1288 q 536 1260 514 1288 q 559 1172 559 1233 q 536 1089 559 1117 q 460 1062 513 1062 m 163 1062 q 92 1089 113 1062 q 71 1172 71 1116 q 91 1260 71 1232 q 163 1288 111 1288 q 240 1260 218 1288 q 262 1172 262 1233 q 239 1089 262 1117 q 163 1062 217 1062 z "},"Đ":{"ha":703,"x_min":29,"x_max":638,"o":"m 87 0 l 87 554 l 29 554 l 29 691 l 87 691 l 87 1170 l 275 1170 q 337 1168 310 1170 q 404 1157 364 1166 q 474 1132 444 1147 q 536 1086 504 1116 q 589 1014 568 1056 q 624 909 610 972 q 638 766 638 845 l 638 411 q 630 294 638 347 q 608 201 621 240 q 573 131 594 162 q 530 78 552 99 q 480 42 509 58 q 428 19 452 27 q 374 7 404 12 q 322 1 343 2 q 275 0 302 0 l 87 0 m 262 122 l 283 122 q 416 183 376 122 q 456 378 456 244 l 456 779 q 417 969 456 908 q 283 1030 378 1030 l 262 1030 l 262 691 l 370 691 l 370 554 l 262 554 l 262 122 z "},"ħ":{"ha":690,"x_min":4,"x_max":604,"o":"m 88 0 l 88 1021 l 4 1021 l 4 1137 l 88 1137 l 88 1227 l 260 1227 l 260 1137 l 410 1137 l 410 1021 l 260 1021 l 260 1009 l 251 854 q 433 945 318 945 q 559 886 515 945 q 604 715 604 828 l 604 0 l 432 0 l 432 710 q 414 794 432 769 q 357 819 395 819 q 306 802 332 819 q 260 756 280 784 l 260 0 l 88 0 z "},"Ĩ":{"ha":374,"x_min":-67,"x_max":439,"o":"m 99 0 l 99 1158 l 275 1158 l 275 0 l 99 0 m 298 1173 q 168 1219 227 1173 q 141 1244 157 1230 q 120 1263 126 1258 q 105 1273 114 1269 q 85 1278 96 1278 q 56 1234 56 1278 l 56 1185 l -64 1185 q -67 1240 -67 1226 q -26 1363 -67 1326 q 83 1401 16 1401 q 149 1390 121 1401 q 205 1356 176 1379 q 219 1341 207 1354 q 238 1324 232 1329 q 254 1311 243 1320 q 273 1299 264 1303 q 290 1296 282 1296 q 324 1335 324 1296 l 324 1388 l 432 1388 q 439 1316 439 1343 q 398 1211 439 1249 q 298 1173 357 1173 z "},"ĩ":{"ha":353,"x_min":-76,"x_max":431,"o":"m 91 0 l 91 934 l 262 934 l 262 0 l 91 0 m 290 1076 q 219 1089 250 1076 q 159 1129 189 1102 q 133 1154 148 1139 q 111 1173 117 1168 q 96 1183 105 1179 q 77 1187 87 1187 q 47 1144 47 1187 l 47 1095 l -73 1095 q -76 1151 -76 1136 q -35 1279 -76 1240 q 74 1318 7 1318 q 140 1305 112 1318 q 196 1265 168 1293 q 211 1251 198 1263 q 229 1234 223 1239 q 245 1221 235 1230 q 264 1209 256 1213 q 281 1206 273 1206 q 315 1246 315 1206 l 315 1305 l 423 1305 q 431 1233 431 1261 q 390 1118 431 1159 q 290 1076 349 1076 z "},"ı":{"ha":353,"x_min":91,"x_max":262,"o":"m 91 0 l 91 934 l 262 934 l 262 0 l 91 0 z "},"Ĳ":{"ha":930,"x_min":99,"x_max":850,"o":"m 99 0 l 99 1158 l 275 1158 l 275 0 l 99 0 m 607 -11 q 498 9 544 -11 q 426 65 452 29 q 389 146 401 102 q 377 245 377 191 q 396 420 377 330 l 536 420 l 534 279 q 550 156 534 191 q 605 122 566 122 q 656 152 639 122 q 673 256 673 182 l 675 1158 l 850 1158 l 850 281 q 837 159 850 212 q 801 75 823 106 q 746 23 779 43 q 680 -4 713 3 q 607 -11 647 -11 z "},"ĳ":{"ha":700,"x_min":77,"x_max":631,"o":"m 180 1067 q 104 1097 132 1067 q 77 1179 77 1126 q 103 1263 77 1238 q 180 1288 130 1288 q 284 1179 284 1288 q 257 1097 284 1126 q 180 1067 230 1067 m 91 0 l 91 934 l 262 934 l 262 0 l 91 0 m 526 1067 q 451 1097 478 1067 q 424 1179 424 1126 q 450 1263 424 1238 q 527 1288 476 1288 q 631 1179 631 1288 q 604 1097 631 1126 q 526 1067 576 1067 m 437 -79 l 437 934 l 609 934 l 609 -57 q 599 -160 609 -116 q 572 -231 589 -205 q 531 -274 555 -258 q 481 -295 506 -290 q 425 -301 456 -301 q 342 -285 378 -301 l 342 -185 q 363 -186 355 -186 q 437 -79 437 -186 z "},"Ĵ":{"ha":564,"x_min":10,"x_max":640,"o":"m 240 -11 q 131 9 177 -11 q 59 65 85 29 q 22 146 34 102 q 10 245 10 191 q 29 420 10 330 l 170 420 l 168 279 q 183 156 168 191 q 238 122 199 122 q 289 152 272 122 q 306 256 306 182 l 308 1158 l 484 1158 l 484 281 q 470 159 484 212 q 434 75 456 106 q 379 23 412 43 q 313 -4 347 3 q 240 -11 280 -11 m 471 1191 l 424 1279 l 397 1317 l 370 1279 l 313 1191 l 144 1191 l 314 1401 l 473 1401 l 640 1191 l 471 1191 z "},"ĵ":{"ha":353,"x_min":-64,"x_max":424,"o":"m 91 -79 l 91 934 l 262 934 l 262 -57 q 252 -160 262 -116 q 225 -231 242 -205 q 184 -274 209 -258 q 134 -295 159 -290 q 78 -301 109 -301 q -5 -285 31 -301 l -5 -185 q 17 -186 9 -186 q 91 -79 91 -186 m 275 1007 l 216 1151 l 181 1267 l 147 1151 l 83 1007 l -64 1007 l 119 1401 l 237 1401 l 424 1007 l 275 1007 z "},"Ķ":{"ha":692,"x_min":99,"x_max":681,"o":"m 99 0 l 99 1158 l 275 1158 l 275 652 l 280 652 l 481 1158 l 656 1158 l 432 615 l 681 0 l 493 0 l 280 551 l 275 551 l 275 0 l 99 0 m 328 -16 l 492 -16 l 418 -310 l 286 -310 l 328 -16 z "},"ķ":{"ha":651,"x_min":91,"x_max":640,"o":"m 91 0 l 91 1234 l 262 1234 l 262 524 l 268 524 l 455 934 l 620 934 l 412 507 l 640 0 l 465 0 l 268 463 l 262 463 l 262 0 l 91 0 m 320 -16 l 484 -16 l 410 -310 l 278 -310 l 320 -16 z "},"ĸ":{"ha":650,"x_min":91,"x_max":640,"o":"m 91 0 l 91 929 l 262 929 l 262 493 l 268 493 l 455 929 l 620 929 l 420 484 l 640 0 l 466 0 l 268 433 l 262 433 l 262 0 l 91 0 z "},"Ŀ":{"ha":536,"x_min":99,"x_max":559,"o":"m 457 408 q 386 440 411 408 q 360 519 360 473 q 385 603 360 568 q 457 637 410 637 q 532 603 506 637 q 559 519 559 569 q 532 441 559 474 q 457 408 505 408 m 99 0 l 99 1158 l 275 1158 l 275 138 l 514 138 l 514 0 l 99 0 z "},"ŀ":{"ha":520,"x_min":91,"x_max":510,"o":"m 91 0 l 91 1227 l 262 1227 l 262 0 l 91 0 m 420 483 q 351 515 377 483 q 326 604 326 547 q 420 720 326 720 q 510 604 510 720 q 487 515 510 547 q 420 483 463 483 z "},"Ł":{"ha":524,"x_min":-52,"x_max":513,"o":"m 99 0 l 99 380 l 28 325 l -52 430 l 99 551 l 99 1170 l 273 1170 l 273 690 l 406 799 l 494 685 l 273 513 l 273 140 l 513 140 l 513 0 l 99 0 z "},"ł":{"ha":412,"x_min":-22,"x_max":434,"o":"m 119 0 l 119 428 l 58 366 l -22 448 l 119 592 l 119 1227 l 290 1227 l 290 767 l 354 833 l 434 750 l 290 602 l 290 0 l 119 0 z "},"Ń":{"ha":762,"x_min":98,"x_max":664,"o":"m 98 0 l 98 1158 l 240 1158 l 521 383 l 525 383 q 521 428 524 391 q 516 489 517 466 q 511 553 514 512 q 508 639 509 593 q 507 736 507 685 l 507 1158 l 664 1158 l 664 0 l 520 0 l 241 755 l 235 755 q 240 692 235 752 q 247 601 245 632 q 251 496 249 570 q 254 340 254 422 l 254 0 l 98 0 m 381 1175 l 310 1255 l 528 1401 l 615 1288 l 381 1175 z "},"ń":{"ha":692,"x_min":89,"x_max":603,"o":"m 89 0 l 89 934 l 221 934 l 237 834 l 237 833 q 432 945 307 945 q 558 886 514 945 q 603 715 603 828 l 603 0 l 431 0 l 431 709 q 413 794 431 769 q 357 819 395 819 q 306 802 331 819 q 260 755 280 785 l 260 0 l 89 0 m 363 991 l 279 1063 l 475 1345 l 590 1252 l 363 991 z "},"Œ":{"ha":929,"x_min":70,"x_max":880,"o":"m 70 428 l 70 730 q 78 852 70 797 q 100 949 87 908 q 135 1023 114 990 q 178 1077 157 1055 q 229 1114 200 1099 q 282 1138 258 1130 q 337 1152 307 1147 q 389 1157 368 1156 q 437 1158 410 1158 l 880 1158 l 880 1019 l 613 1019 l 613 675 l 821 675 l 821 523 l 613 523 l 613 139 l 880 139 l 880 0 l 437 0 q 389 1 410 0 q 337 7 368 2 q 282 20 306 12 q 229 44 258 28 q 178 81 200 60 q 135 135 157 102 q 100 209 114 168 q 78 306 87 250 q 70 428 70 361 m 428 127 l 439 127 l 439 1031 l 428 1031 q 291 967 330 1031 q 252 762 252 903 l 252 395 q 292 189 252 252 q 428 127 333 127 z "},"œ":{"ha":968,"x_min":66,"x_max":907,"o":"m 325 -10 q 273 -7 296 -10 q 221 7 249 -3 q 173 35 194 18 q 131 84 151 53 q 96 157 110 115 q 75 261 83 199 q 66 399 66 322 l 66 545 q 75 680 66 620 q 97 781 83 740 q 132 851 111 821 q 175 898 153 882 q 224 925 196 915 q 274 937 252 935 q 326 940 297 940 q 497 863 438 940 l 503 863 q 680 940 570 940 q 907 650 907 940 q 885 433 907 530 l 581 433 l 581 338 q 602 165 581 214 q 680 117 623 117 q 740 147 716 117 q 764 245 764 177 l 764 279 l 903 279 l 903 243 q 845 51 903 111 q 665 -10 788 -10 q 571 11 615 -10 q 497 66 528 31 l 492 66 q 325 -10 430 -10 m 581 547 l 749 547 q 751 646 751 574 q 732 778 751 738 q 669 819 712 819 q 602 772 623 819 q 581 608 581 725 l 581 547 m 326 117 q 390 167 372 117 q 408 348 408 218 l 408 586 q 390 768 408 717 q 326 819 372 819 q 258 767 278 819 q 239 586 239 715 l 239 348 q 258 168 239 218 q 326 117 277 117 z "},"Ŕ":{"ha":726,"x_min":99,"x_max":677,"o":"m 99 0 l 99 1158 l 290 1158 q 351 1157 324 1158 q 416 1147 378 1155 q 483 1127 454 1140 q 543 1089 512 1114 q 594 1031 574 1065 q 628 945 614 997 q 641 827 641 892 l 641 798 q 491 463 641 538 l 677 0 l 491 0 l 337 433 l 271 433 l 271 0 l 99 0 m 271 560 l 298 560 q 428 605 391 560 q 465 766 465 650 l 465 858 q 428 990 465 950 q 298 1030 391 1030 l 271 1030 l 271 560 m 389 1175 l 317 1255 l 535 1401 l 623 1288 l 389 1175 z "},"Ŗ":{"ha":726,"x_min":99,"x_max":677,"o":"m 99 0 l 99 1158 l 290 1158 q 351 1157 324 1158 q 416 1147 378 1155 q 483 1127 454 1140 q 543 1089 512 1114 q 594 1031 574 1065 q 628 945 614 997 q 641 827 641 892 l 641 798 q 491 463 641 538 l 677 0 l 491 0 l 337 433 l 271 433 l 271 0 l 99 0 m 271 560 l 298 560 q 428 605 391 560 q 465 766 465 650 l 465 858 q 428 990 465 950 q 298 1030 391 1030 l 271 1030 l 271 560 m 326 -16 l 490 -16 l 416 -310 l 284 -310 l 326 -16 z "},"ŗ":{"ha":537,"x_min":63,"x_max":517,"o":"m 91 0 l 91 934 l 216 934 l 231 839 q 296 918 258 890 q 372 945 333 945 q 517 763 517 945 q 494 636 517 704 l 374 636 l 374 723 q 329 819 374 819 q 262 769 288 819 l 262 0 l 91 0 m 105 -16 l 269 -16 l 195 -310 l 63 -310 l 105 -16 z "},"Ř":{"ha":726,"x_min":99,"x_max":677,"o":"m 99 0 l 99 1158 l 290 1158 q 351 1157 324 1158 q 416 1147 378 1155 q 483 1127 454 1140 q 543 1089 512 1114 q 594 1031 574 1065 q 628 945 614 997 q 641 827 641 892 l 641 798 q 491 463 641 538 l 677 0 l 491 0 l 337 433 l 271 433 l 271 0 l 99 0 m 271 560 l 298 560 q 428 605 391 560 q 465 766 465 650 l 465 858 q 428 990 465 950 q 298 1030 391 1030 l 271 1030 l 271 560 m 466 1191 l 307 1191 l 138 1401 l 306 1401 l 363 1313 l 390 1275 l 417 1313 l 464 1401 l 633 1401 l 466 1191 z "},"ř":{"ha":537,"x_min":81,"x_max":570,"o":"m 91 0 l 91 934 l 216 934 l 231 839 q 296 918 258 890 q 372 945 333 945 q 517 763 517 945 q 494 636 517 704 l 374 636 l 374 723 q 329 819 374 819 q 262 769 288 819 l 262 0 l 91 0 m 382 1007 l 264 1007 l 81 1401 l 229 1401 l 293 1257 l 327 1141 l 361 1257 l 421 1401 l 570 1401 l 382 1007 z "},"Š":{"ha":642,"x_min":51,"x_max":596,"o":"m 51 235 q 68 372 51 298 l 205 372 l 205 315 q 231 170 205 218 q 319 122 257 122 q 395 150 369 122 q 422 230 422 178 q 405 325 422 284 q 340 427 389 366 l 157 645 q 56 906 56 776 q 127 1096 56 1024 q 322 1168 198 1168 q 449 1147 395 1168 q 532 1089 503 1126 q 574 1011 561 1053 q 587 923 587 970 q 586 896 587 909 q 583 866 585 882 q 579 842 581 850 q 574 812 578 833 q 568 785 570 791 l 433 785 l 433 840 q 320 1030 433 1030 q 247 1003 272 1030 q 222 929 222 976 q 235 853 222 884 q 277 784 248 823 l 481 537 q 568 395 539 461 q 596 256 596 328 q 522 61 596 133 q 320 -11 447 -11 q 212 3 259 -11 q 134 40 164 17 q 85 95 104 63 q 59 161 66 127 q 51 235 51 195 m 401 1191 l 242 1191 l 73 1401 l 241 1401 l 298 1313 l 325 1275 l 352 1313 l 399 1401 l 568 1401 l 401 1191 z "},"š":{"ha":556,"x_min":40,"x_max":528,"o":"m 48 195 q 65 300 48 249 l 186 300 q 208 160 186 199 q 286 122 229 122 q 341 143 322 122 q 359 194 359 163 q 346 247 359 222 q 301 309 332 271 l 176 457 q 82 596 115 534 q 50 732 50 659 q 69 826 50 785 q 119 893 87 867 q 192 931 151 918 q 279 945 233 945 q 442 895 383 945 q 501 751 501 846 q 484 635 501 702 l 366 635 q 348 777 364 735 q 282 819 331 819 q 222 796 241 819 q 204 739 204 772 q 218 682 204 709 q 261 618 232 654 l 398 457 q 434 410 422 427 q 468 357 446 394 q 501 284 490 321 q 512 208 512 247 q 449 49 512 108 q 274 -10 387 -10 q 185 1 225 -10 q 114 35 146 12 q 65 98 83 58 q 48 195 48 139 m 341 1007 l 223 1007 l 40 1401 l 188 1401 l 252 1257 l 286 1141 l 320 1257 l 380 1401 l 528 1401 l 341 1007 z "},"Ÿ":{"ha":650,"x_min":3,"x_max":647,"o":"m 237 0 l 237 386 l 3 1158 l 180 1158 l 322 604 l 330 604 l 471 1158 l 647 1158 l 412 386 l 412 0 l 237 0 m 471 1187 q 400 1214 420 1187 q 379 1295 379 1241 q 399 1376 379 1350 q 471 1401 419 1401 q 548 1376 526 1401 q 570 1295 570 1351 q 547 1215 570 1243 q 471 1187 524 1187 m 175 1187 q 103 1214 124 1187 q 82 1295 82 1241 q 102 1376 82 1350 q 175 1401 123 1401 q 251 1376 229 1401 q 273 1295 273 1351 q 251 1215 273 1242 q 175 1187 228 1187 z "},"Ź":{"ha":587,"x_min":26,"x_max":567,"o":"m 26 0 l 26 93 l 370 1020 l 78 1020 l 78 1158 l 567 1158 l 567 1065 l 223 138 l 547 138 l 547 0 l 26 0 m 328 1175 l 256 1255 l 474 1401 l 562 1288 l 328 1175 z "},"Ž":{"ha":587,"x_min":26,"x_max":572,"o":"m 26 0 l 26 93 l 370 1020 l 78 1020 l 78 1158 l 567 1158 l 567 1065 l 223 138 l 547 138 l 547 0 l 26 0 m 405 1191 l 246 1191 l 77 1401 l 245 1401 l 302 1313 l 329 1275 l 356 1313 l 403 1401 l 572 1401 l 405 1191 z "},"ž":{"ha":473,"x_min":-8,"x_max":480,"o":"m 13 0 l 13 85 l 275 804 l 35 804 l 35 934 l 458 934 l 458 848 l 196 130 l 460 130 l 460 0 l 13 0 m 293 1007 l 175 1007 l -8 1401 l 140 1401 l 203 1257 l 237 1141 l 272 1257 l 332 1401 l 480 1401 l 293 1007 z "},"ƒ":{"ha":418,"x_min":-44,"x_max":423,"o":"m 104 -40 l 104 652 l 26 652 l 26 782 l 104 782 l 104 1001 q 115 1104 104 1060 q 143 1175 125 1148 q 188 1217 161 1201 q 244 1239 215 1234 q 309 1245 273 1245 q 423 1222 377 1245 l 423 1101 q 359 1109 395 1109 q 299 1083 322 1109 q 275 1001 275 1058 l 275 782 l 412 782 l 412 652 l 275 652 l 275 -40 q 264 -143 275 -99 q 236 -214 254 -187 q 191 -256 218 -240 q 135 -278 164 -273 q 70 -284 106 -284 q -44 -261 2 -284 l -44 -140 q 20 -148 -16 -148 q 80 -122 57 -148 q 104 -40 104 -97 z "},"ȷ":{"ha":353,"x_min":-5,"x_max":262,"o":"m 91 -79 l 91 934 l 262 934 l 262 -57 q 252 -160 262 -116 q 225 -231 242 -205 q 184 -274 209 -258 q 134 -295 159 -290 q 78 -301 109 -301 q -5 -285 31 -301 l -5 -185 q 17 -186 9 -186 q 91 -79 91 -186 z "},"ˆ":{"ha":643,"x_min":77,"x_max":566,"o":"m 417 1007 l 357 1151 l 323 1267 l 289 1151 l 225 1007 l 77 1007 l 260 1401 l 378 1401 l 566 1007 l 417 1007 z "},"ˇ":{"ha":643,"x_min":77,"x_max":566,"o":"m 378 1007 l 260 1007 l 77 1401 l 225 1401 l 289 1257 l 323 1141 l 357 1257 l 417 1401 l 566 1401 l 378 1007 z "},"˙":{"ha":361,"x_min":77,"x_max":284,"o":"m 180 1067 q 104 1097 132 1067 q 77 1179 77 1126 q 103 1263 77 1238 q 180 1288 130 1288 q 284 1179 284 1288 q 257 1097 284 1126 q 180 1067 230 1067 z "},"˚":{"ha":587,"x_min":77,"x_max":510,"o":"m 290 984 q 196 1001 238 984 q 129 1048 155 1019 q 91 1114 104 1078 q 77 1192 77 1151 q 90 1271 77 1234 q 128 1337 103 1308 q 195 1383 153 1367 q 290 1400 237 1400 q 453 1340 396 1400 q 510 1192 510 1280 q 496 1117 510 1153 q 456 1050 482 1080 q 387 1002 430 1021 q 290 984 344 984 m 290 1095 q 369 1123 340 1095 q 397 1189 397 1152 q 369 1261 397 1233 q 290 1290 341 1290 q 219 1261 243 1290 q 195 1189 195 1232 q 220 1122 195 1150 q 290 1095 245 1095 z "},"˜":{"ha":661,"x_min":77,"x_max":584,"o":"m 443 1042 q 373 1055 403 1042 q 313 1095 342 1067 q 286 1119 301 1105 q 264 1139 271 1133 q 249 1148 258 1144 q 230 1153 240 1153 q 201 1109 201 1153 l 201 1061 l 80 1061 q 77 1116 77 1101 q 119 1244 77 1205 q 227 1283 160 1283 q 293 1271 265 1283 q 349 1231 321 1258 q 364 1217 351 1229 q 382 1200 376 1204 q 398 1186 388 1195 q 418 1175 409 1178 q 435 1171 427 1171 q 469 1211 469 1171 l 469 1270 l 576 1270 q 584 1198 584 1226 q 543 1083 584 1124 q 443 1042 502 1042 z "},"–":{"ha":937,"x_min":85,"x_max":850,"o":"m 85 465 l 85 602 l 850 602 l 850 465 l 85 465 z "},"—":{"ha":1117,"x_min":85,"x_max":1031,"o":"m 85 465 l 85 602 l 1031 602 l 1031 465 l 85 465 z "},"‘":{"ha":420,"x_min":110,"x_max":345,"o":"m 110 800 l 110 952 l 212 1272 l 345 1272 l 292 1003 l 292 800 l 110 800 z "},"’":{"ha":420,"x_min":68,"x_max":304,"o":"m 304 1272 l 304 1120 l 202 800 l 68 800 l 122 1069 l 122 1272 l 304 1272 z "},"‚":{"ha":420,"x_min":68,"x_max":304,"o":"m 304 161 l 304 9 l 202 -311 l 68 -311 l 122 -41 l 122 161 l 304 161 z "},"“":{"ha":741,"x_min":110,"x_max":665,"o":"m 110 800 l 110 952 l 212 1272 l 345 1272 l 292 1003 l 292 800 l 110 800 m 430 800 l 430 952 l 532 1272 l 665 1272 l 612 1003 l 612 800 l 430 800 z "},"”":{"ha":738,"x_min":68,"x_max":621,"o":"m 304 1274 l 304 1122 l 202 802 l 68 802 l 122 1071 l 122 1274 l 304 1274 m 621 1274 l 621 1122 l 519 802 l 386 802 l 439 1071 l 439 1274 l 621 1274 z "},"„":{"ha":741,"x_min":68,"x_max":624,"o":"m 304 161 l 304 9 l 202 -311 l 68 -311 l 122 -41 l 122 161 l 304 161 m 624 161 l 624 9 l 522 -311 l 389 -311 l 442 -41 l 442 161 l 624 161 z "},"†":{"ha":307,"x_min":-99,"x_max":406,"o":"m 79 -219 l 79 783 l -99 783 l -99 920 l 79 920 l 79 1265 l 228 1265 l 228 920 l 406 920 l 406 783 l 228 783 l 228 -219 l 79 -219 z "},"‡":{"ha":307,"x_min":-99,"x_max":406,"o":"m 79 -219 l 79 426 l -99 426 l -99 562 l 79 562 l 79 783 l -99 783 l -99 920 l 79 920 l 79 1265 l 228 1265 l 228 920 l 406 920 l 406 783 l 228 783 l 228 562 l 406 562 l 406 426 l 228 426 l 228 -219 l 79 -219 z "},"•":{"ha":482,"x_min":91,"x_max":391,"o":"m 237 361 q 129 407 168 361 q 91 518 91 453 q 128 636 91 588 q 237 684 165 684 q 351 636 311 684 q 391 518 391 588 q 351 408 391 456 q 237 361 310 361 z "},"…":{"ha":1006,"x_min":62,"x_max":939,"o":"m 62 121 q 168 256 62 256 q 246 222 218 256 q 274 121 274 188 q 245 25 274 60 q 167 -9 217 -9 q 90 24 118 -9 q 62 121 62 58 m 394 121 q 500 256 394 256 q 578 222 551 256 q 606 121 606 188 q 578 25 606 60 q 499 -9 549 -9 q 422 24 450 -9 q 394 121 394 58 m 727 121 q 833 256 727 256 q 911 222 884 256 q 939 121 939 188 q 911 25 939 60 q 832 -9 882 -9 q 755 24 783 -9 q 727 121 727 58 z "},"‰":{"ha":1815,"x_min":106,"x_max":1708,"o":"m 1273 285 l 1273 357 q 1287 482 1273 429 q 1322 565 1301 535 q 1374 613 1343 595 q 1432 637 1404 631 q 1492 642 1459 642 q 1540 638 1518 642 q 1589 624 1563 634 q 1635 593 1615 614 q 1673 543 1655 573 q 1699 465 1690 513 q 1708 357 1708 418 l 1708 285 q 1694 159 1708 214 q 1658 73 1680 104 q 1607 22 1637 42 q 1549 -4 1577 3 q 1491 -10 1522 -10 q 1429 -4 1457 -10 q 1371 21 1400 2 q 1320 72 1341 41 q 1286 158 1299 103 q 1273 285 1273 212 m 1412 250 q 1431 134 1412 170 q 1493 98 1449 98 q 1552 134 1534 98 q 1569 250 1569 170 l 1569 381 q 1552 498 1569 461 q 1493 534 1534 534 q 1431 498 1449 534 q 1412 381 1412 461 l 1412 250 m 325 533 q 262 539 291 533 q 204 565 234 545 q 153 615 174 584 q 119 701 132 646 q 106 828 106 755 l 106 901 q 120 1025 106 972 q 155 1108 134 1078 q 207 1156 176 1138 q 266 1180 238 1175 q 326 1185 293 1185 q 374 1181 351 1185 q 423 1167 397 1177 q 469 1137 449 1157 q 506 1086 489 1116 q 533 1008 524 1056 q 542 901 542 961 l 542 828 q 528 702 542 757 q 492 616 513 648 q 440 566 471 585 q 383 539 410 546 q 325 533 355 533 m 424 0 l 736 1171 l 859 1171 l 547 0 l 424 0 m 326 641 q 385 677 368 641 q 403 793 403 713 l 403 924 q 385 1041 403 1004 q 326 1078 368 1078 q 264 1041 283 1078 q 245 924 245 1004 l 245 793 q 264 677 245 713 q 326 641 283 641 m 737 285 l 737 357 q 751 482 737 429 q 786 565 765 535 q 838 613 808 595 q 896 637 869 631 q 956 642 924 642 q 1005 638 982 642 q 1054 624 1027 634 q 1100 593 1080 614 q 1137 543 1120 573 q 1163 465 1154 513 q 1173 357 1173 418 l 1173 285 q 1158 159 1173 214 q 1123 73 1144 104 q 1071 22 1101 42 q 1014 -4 1041 3 q 956 -10 986 -10 q 893 -4 922 -10 q 835 21 865 2 q 784 72 805 41 q 750 158 764 103 q 737 285 737 212 m 876 250 q 895 134 876 170 q 957 98 913 98 q 1016 134 998 98 q 1034 250 1034 170 l 1034 381 q 1016 498 1034 461 q 957 534 998 534 q 895 498 913 534 q 876 381 876 461 l 876 250 z "},"‹":{"ha":566,"x_min":98,"x_max":454,"o":"m 359 207 l 98 486 l 98 588 l 361 863 l 454 779 l 262 536 l 452 292 l 359 207 z "},"›":{"ha":566,"x_min":104,"x_max":461,"o":"m 461 486 l 200 207 l 107 292 l 296 536 l 104 779 l 197 863 l 461 588 l 461 486 z "},"⁄":{"ha":307,"x_min":-64,"x_max":371,"o":"m 60 0 l -64 0 l 248 1159 l 371 1159 l 60 0 z "},"€":{"ha":704,"x_min":3,"x_max":663,"o":"m 3 370 l 3 492 l 107 492 l 107 595 l 3 595 l 3 716 l 107 716 l 107 787 q 118 918 107 860 q 146 1016 129 977 q 188 1084 163 1055 q 239 1129 214 1113 q 295 1154 264 1145 q 350 1166 326 1163 q 401 1168 374 1168 q 589 1106 530 1168 q 647 940 647 1044 q 645 897 647 917 q 642 867 643 876 q 635 837 640 859 q 629 810 630 815 l 493 810 l 493 854 q 469 988 493 946 q 397 1031 445 1031 q 315 987 342 1031 q 287 836 287 943 l 287 716 l 505 716 l 486 595 l 287 595 l 287 492 l 468 492 l 446 370 l 287 370 l 287 309 q 316 164 287 205 q 409 123 346 123 q 486 154 457 123 q 515 248 515 186 l 515 298 l 663 298 l 663 256 q 409 -10 663 -9 q 355 -7 380 -10 q 298 6 330 -4 q 241 32 267 16 q 190 77 216 48 q 147 145 164 106 q 119 241 130 184 q 107 370 108 299 l 3 370 z "},"™":{"ha":1083,"x_min":27,"x_max":994,"o":"m 465 592 l 465 1170 l 619 1170 l 705 924 l 728 847 l 739 847 l 762 924 l 855 1170 l 994 1170 l 994 592 l 873 592 l 873 650 q 875 785 873 724 q 878 871 877 846 q 883 941 880 895 q 888 993 887 987 l 884 993 l 771 676 l 694 676 l 576 993 l 571 993 q 575 941 572 987 q 581 871 579 895 q 584 785 582 846 q 585 650 585 724 l 585 592 l 465 592 m 148 592 l 148 1062 l 27 1062 l 28 1170 l 389 1170 l 389 1062 l 269 1062 l 269 592 l 148 592 z "},"−":{"ha":676,"x_min":85,"x_max":591,"o":"m 85 469 l 85 602 l 591 602 l 591 469 l 85 469 z "},"√":{"ha":701,"x_min":21,"x_max":762,"o":"m 301 0 l 119 674 l 21 674 l 21 807 l 256 807 l 352 435 l 374 237 l 380 237 l 406 435 l 596 1398 l 762 1398 l 448 0 l 301 0 z "},"∫":{"ha":418,"x_min":-44,"x_max":423,"o":"m 104 -40 l 104 1001 q 115 1104 104 1060 q 143 1175 125 1148 q 188 1217 161 1201 q 244 1239 215 1234 q 309 1245 273 1245 q 423 1222 377 1245 l 423 1101 q 359 1109 395 1109 q 299 1083 322 1109 q 275 1001 275 1058 l 275 -40 q 264 -143 275 -99 q 236 -214 254 -187 q 191 -256 218 -240 q 135 -278 164 -273 q 70 -284 106 -284 q -44 -261 2 -284 l -44 -140 q 20 -148 -16 -148 q 80 -122 57 -148 q 104 -40 104 -97 z "},"≈":{"ha":884,"x_min":81,"x_max":795,"o":"m 88 634 q 91 756 83 703 q 117 843 99 809 q 163 900 136 878 q 222 930 191 922 q 290 939 254 939 q 359 928 327 939 q 414 898 391 916 q 457 856 437 879 q 494 811 477 833 q 526 769 511 788 q 559 739 541 751 q 594 728 576 728 q 658 777 641 728 q 659 918 675 826 l 789 918 q 794 779 804 839 q 758 679 785 719 q 692 620 730 640 q 610 600 654 600 q 529 615 567 600 q 466 654 491 631 q 416 704 440 677 q 374 755 391 732 q 335 793 356 778 q 294 809 315 809 q 223 761 244 809 q 214 634 202 713 l 88 634 m 81 190 q 83 312 75 258 q 110 399 92 365 q 156 455 128 433 q 215 486 184 477 q 283 495 246 495 q 352 484 319 495 q 407 453 384 472 q 450 412 429 435 q 487 367 470 389 q 518 325 503 344 q 551 295 534 307 q 587 283 569 283 q 651 333 633 283 q 652 474 668 382 l 782 474 q 787 335 796 395 q 750 235 778 275 q 685 175 723 195 q 603 155 647 155 q 508 177 551 155 q 436 230 465 199 q 384 291 408 260 q 335 343 359 321 q 287 365 311 365 q 216 317 237 365 q 207 190 195 269 l 81 190 z "},"≠":{"ha":621,"x_min":58,"x_max":563,"o":"m 119 136 l 177 331 l 58 331 l 58 463 l 217 463 l 260 607 l 58 607 l 58 739 l 300 739 l 357 928 l 465 928 l 408 739 l 563 739 l 563 607 l 368 607 l 325 463 l 563 463 l 563 331 l 285 331 l 227 136 l 119 136 z "},"":{"ha":360,"x_min":77,"x_max":283,"o":"m 119 -16 l 283 -16 l 210 -310 l 77 -310 l 119 -16 z "},"ﬀ":{"ha":840,"x_min":31,"x_max":850,"o":"m 111 0 l 111 804 l 31 804 l 31 934 l 111 934 l 111 994 q 126 1117 111 1067 q 170 1193 141 1167 q 233 1228 199 1218 q 314 1238 267 1238 q 428 1215 382 1238 l 428 1095 q 364 1102 399 1102 q 303 1077 327 1102 q 280 994 280 1051 l 280 934 l 410 934 l 410 804 l 280 804 l 280 0 l 111 0 m 534 0 l 534 812 l 453 812 l 453 934 l 534 934 l 534 1001 q 549 1124 534 1074 q 593 1199 564 1174 q 656 1235 622 1225 q 736 1245 690 1245 q 850 1222 804 1245 l 850 1101 q 787 1109 822 1109 q 726 1083 749 1109 q 703 1001 703 1058 l 703 934 l 832 934 l 832 812 l 703 812 l 703 0 l 534 0 z "},"ﬁ":{"ha":776,"x_min":31,"x_max":707,"o":"m 111 0 l 111 804 l 31 804 l 31 934 l 111 934 l 111 1001 q 121 1104 111 1060 q 149 1175 132 1148 q 191 1217 165 1201 q 244 1239 217 1234 q 307 1245 272 1245 q 414 1222 371 1245 l 414 1101 q 357 1109 389 1109 q 301 1083 323 1109 q 280 1001 280 1058 l 280 934 l 410 934 l 410 804 l 280 804 l 280 0 l 111 0 m 602 1067 q 527 1097 554 1067 q 500 1179 500 1126 q 526 1263 500 1238 q 603 1288 552 1288 q 707 1179 707 1288 q 680 1097 707 1126 q 602 1067 652 1067 m 513 0 l 513 934 l 685 934 l 685 0 l 513 0 z "},"ﬂ":{"ha":778,"x_min":31,"x_max":687,"o":"m 111 0 l 111 804 l 31 804 l 31 934 l 111 934 l 111 1001 q 121 1104 111 1060 q 149 1175 132 1148 q 191 1217 165 1201 q 244 1239 217 1234 q 307 1245 272 1245 q 414 1222 371 1245 l 414 1101 q 357 1109 389 1109 q 301 1083 323 1109 q 280 1001 280 1058 l 280 934 l 410 934 l 410 804 l 280 804 l 280 0 l 111 0 m 515 0 l 515 1234 l 687 1234 l 687 0 l 515 0 z "}}}
